<?xml version="1.0" encoding="UTF-8"?>
<svg version="1.1" xmlns="http://www.w3.org/2000/svg" width="3543" height="3184">
<path d="M0 0 C1.61318889 -0.00349285 3.22637331 -0.01050531 4.83953369 -0.02071333 C9.25274007 -0.03853522 13.66438249 -0.0066985 18.07738972 0.03351116 C22.84344584 0.06814729 27.60941796 0.05636169 32.37556458 0.05029297 C40.62659631 0.04610367 48.87712088 0.07114497 57.12802505 0.11619568 C69.05726977 0.18128798 80.98626994 0.20205495 92.915673 0.21209961 C112.27146609 0.22959681 131.62698904 0.28280407 150.9826355 0.35852051 C169.78177542 0.43198338 188.5808419 0.48859572 207.38009644 0.52258301 C208.53941048 0.5246848 209.69872453 0.52678658 210.8931693 0.52895206 C216.70926621 0.53939257 222.52536364 0.54950218 228.34146142 0.55944729 C276.57099778 0.64234421 324.80024095 0.78321715 373.0295105 0.96203613 C372.55344462 2.72036103 372.07644858 4.47843409 371.59906101 6.2364006 C371.33353383 7.21545451 371.06800664 8.19450841 370.79443318 9.20323062 C369.90233292 12.42072066 368.90974698 15.59327669 367.86325073 18.76379395 C367.25894981 20.60172012 367.25894981 20.60172012 366.6424408 22.47677612 C366.20770429 23.78958515 365.77292414 25.10237972 365.33810425 26.41516113 C364.87609037 27.8171454 364.41434089 29.21921681 363.95283508 30.62136841 C362.97157209 33.60098802 361.98863056 36.58004618 361.00430298 39.55865479 C359.44296156 44.28348622 357.88551559 49.00959581 356.3288269 53.73596191 C355.80087949 55.33877784 355.27292538 56.94159156 354.7449646 58.54440308 C354.48336044 59.33860027 354.22175629 60.13279747 353.95222473 60.95106125 C353.15710618 63.36445153 352.3616148 65.77771862 351.56600952 68.19094849 C346.99184542 82.06634556 342.44366395 95.95014486 337.9045105 109.83703613 C336.45168696 114.2798431 334.99849934 118.72253089 333.5451355 123.16516113 C333.18231979 124.27422821 332.81950409 125.38329529 332.44569397 126.52597046 C327.85718255 140.54912941 323.25568921 154.56802974 318.6545105 168.58703613 C318.21016379 169.9409076 317.76581768 171.29477926 317.32147217 172.64865112 C316.87706507 174.00270591 316.43265792 175.35676068 315.98825073 176.71081543 C315.32177631 178.74148314 314.65530288 180.77215118 313.98883247 182.80282021 C313.54439135 184.15698655 313.09994733 185.51115195 312.65550041 186.86531639 C307.75636514 201.79241538 302.86124141 216.7208285 297.9670105 231.64953613 C297.5561319 232.90279694 297.1452533 234.15605774 296.72192383 235.44729614 C293.82434417 244.28550722 290.92690676 253.12376493 288.0295105 261.96203613 C284.71711252 272.06623625 281.40464709 282.17041424 278.0920105 292.27453613 C277.68103119 293.52809906 277.27005188 294.78166199 276.84661865 296.07321167 C270.190575 316.37509458 263.53038633 336.67561573 256.86872101 356.9756546 C247.74535575 384.77728154 238.62843014 412.58101608 229.51339722 440.38537598 C227.02023842 447.99041154 224.52686408 455.59537642 222.03341675 463.20031738 C221.72386708 464.14443513 221.72386708 464.14443513 221.40806389 465.10762596 C220.36555127 468.28725653 219.3230352 471.46688597 218.28051758 474.64651489 C216.4051413 480.36632849 214.52979565 486.08615212 212.65444756 491.80597496 C211.61280311 494.98299576 210.57115671 498.16001591 209.5295105 501.33703613 C209.11284382 502.60786946 208.69617716 503.8787028 208.2795105 505.14953613 C177.3420105 599.50891113 177.3420105 599.50891113 105.7795105 817.77453613 C105.57326081 818.40359769 105.36701113 819.03265924 105.15451145 819.68078327 C104.73784164 820.95162615 104.3211718 822.22246902 103.90450191 823.49331188 C102.862883 826.67024901 101.82126474 829.84718636 100.77964783 833.02412415 C98.90407831 838.7446202 97.02850419 844.46511475 95.15290546 850.18560123 C94.11046847 853.36498472 93.06803534 856.54436947 92.02560425 859.72375488 C91.81923277 860.35318182 91.61286129 860.98260876 91.40023613 861.63110924 C88.7017185 869.86153243 86.00336941 878.09201086 83.30517578 886.32254028 C74.16349576 914.20816144 65.01877172 942.09277904 55.86872101 969.9756546 C48.41135007 992.70049779 40.95674407 1015.42624549 33.5072937 1038.15368652 C29.65771934 1049.89799446 25.80699463 1061.64191814 21.95124817 1073.38420105 C20.36276484 1078.22177935 18.77493041 1083.05957058 17.1872263 1087.89740467 C16.11190899 1091.17379519 15.03624103 1094.45006958 13.95965576 1097.7260437 C12.76718176 1101.35518933 11.57596754 1104.98474646 10.38497925 1108.61437988 C10.04718445 1109.64129944 9.70938965 1110.66821899 9.36135864 1111.72625732 C5.8453267 1122.4496386 2.45170514 1133.20656727 -0.9704895 1143.96203613 C217.1595105 1143.96203613 435.2895105 1143.96203613 660.0295105 1143.96203613 C660.0295105 1154.96203613 660.0295105 1154.96203613 656.90841675 1158.38781738 C655.49369939 1159.38512939 654.05271108 1160.34587567 652.5920105 1161.27453613 C651.02304297 1162.36722176 649.45671 1163.46369832 647.89279175 1164.56359863 C647.08535522 1165.11821777 646.2779187 1165.67283691 645.4460144 1166.2442627 C641.55480045 1169.01033477 637.92880549 1172.0754789 634.2795105 1175.14953613 C628.39841259 1180.04622133 622.4304195 1184.77145738 616.33810425 1189.40344238 C612.50332933 1192.34277579 608.76903624 1195.40306863 605.0295105 1198.46203613 C600.22779522 1202.38822498 595.39959856 1206.2638669 590.4670105 1210.02453613 C585.79268454 1213.59087372 581.17617329 1217.21810078 576.5920105 1220.89953613 C571.73605897 1224.79923875 566.86700868 1228.6802817 561.9670105 1232.52453613 C561.39200806 1232.97578857 560.81700562 1233.42704102 560.22457886 1233.89196777 C557.35337379 1236.14367979 554.47943839 1238.39186149 551.60372925 1240.63781738 C545.33877701 1245.53742248 539.12697344 1250.4933853 532.9670105 1255.52453613 C527.18083896 1260.25039278 521.31464569 1264.83871524 515.3732605 1269.36828613 C511.53064168 1272.32414676 507.7819974 1275.39311421 504.0295105 1278.46203613 C498.22327177 1283.2105919 492.33844873 1287.82056837 486.3732605 1292.36828613 C482.53063988 1295.32414814 478.78203838 1298.39316177 475.0295105 1301.46203613 C470.22774296 1305.38816376 465.39960093 1309.2638651 460.4670105 1313.02453613 C455.79268454 1316.59087372 451.17617329 1320.21810078 446.5920105 1323.89953613 C441.73605897 1327.79923875 436.86700868 1331.6802817 431.9670105 1335.52453613 C431.39200806 1335.97578857 430.81700562 1336.42704102 430.22457886 1336.89196777 C427.35337379 1339.14367979 424.47943839 1341.39186149 421.60372925 1343.63781738 C415.33877701 1348.53742248 409.12697344 1353.4933853 402.9670105 1358.52453613 C397.19235159 1363.24098983 391.33848031 1367.82103161 385.40841675 1372.34094238 C380.6633801 1375.9908606 376.03990467 1379.79288749 371.40841675 1383.58508301 C370.76646362 1384.11037598 370.1245105 1384.63566895 369.46310425 1385.17687988 C368.89648071 1385.64215088 368.32985718 1386.10742188 367.74606323 1386.58679199 C367.17960083 1387.04062256 366.61313843 1387.49445313 366.0295105 1387.96203613 C365.48501936 1388.47778696 364.94052822 1388.99353778 364.37953734 1389.52491742 C361.190945 1391.47484651 358.33737828 1391.3725465 354.71252823 1391.33117962 C353.97009355 1391.33464115 353.22765887 1391.33810268 352.46272618 1391.34166911 C349.96104426 1391.34964508 347.45993513 1391.33612232 344.95828247 1391.32279968 C343.15229111 1391.32410726 341.34630029 1391.3267328 339.54031253 1391.33056718 C334.56678971 1391.3372935 329.59345973 1391.32525001 324.6199615 1391.310233 C319.26074516 1391.29730778 313.90154016 1391.3016596 308.54231262 1391.30393982 C299.25350609 1391.30551478 289.96476265 1391.29608229 280.67597198 1391.2792263 C267.24586007 1391.25487106 253.81577875 1391.24703459 240.38564715 1391.24326233 C218.59748403 1391.23669238 196.80935456 1391.21671649 175.02120972 1391.18835449 C153.85291716 1391.16082797 132.68463374 1391.1395875 111.5163269 1391.12683105 C110.21206073 1391.12604288 108.90779456 1391.12525471 107.56400517 1391.12444266 C101.02104862 1391.12052762 94.47809202 1391.11673648 87.93513536 1391.11300695 C33.63323717 1391.08189413 -20.66862456 1391.02904356 -74.9704895 1390.96203613 C-75.17195347 1391.88608078 -75.17195347 1391.88608078 -75.37748742 1392.82879299 C-75.55528355 1393.63792725 -75.73307969 1394.44706151 -75.91626358 1395.28071499 C-76.09182289 1396.08236975 -76.26738221 1396.88402451 -76.4482615 1397.70997185 C-77.05679985 1400.33424222 -77.83483898 1402.85378457 -78.71951294 1405.39782715 C-79.22291199 1406.85718437 -79.22291199 1406.85718437 -79.73648071 1408.34602356 C-80.09729736 1409.37559677 -80.45811401 1410.40516998 -80.8298645 1411.46594238 C-81.21066162 1412.56516525 -81.59145874 1413.66438812 -81.98379517 1414.79692078 C-83.22454161 1418.37448692 -84.47240675 1421.94952347 -85.7204895 1425.52453613 C-86.58774278 1428.02016842 -87.45460113 1430.51593797 -88.32107544 1433.01184082 C-90.86389113 1440.33101691 -93.41602508 1447.6469188 -95.9704895 1454.96203613 C-96.64498242 1456.89481128 -97.31946266 1458.82759085 -97.993927 1460.76037598 C-101.12761255 1469.73714857 -104.27117484 1478.71043438 -107.41893005 1487.68228149 C-110.76029581 1497.20895607 -114.08403796 1506.7417747 -117.4079895 1516.27453613 C-118.0423435 1518.0935482 -118.67670223 1519.91255861 -119.31106567 1521.73156738 C-120.57751766 1525.36320759 -121.84386731 1528.99488346 -123.11013794 1532.62658691 C-125.78413246 1540.2956672 -128.4586608 1547.96456125 -131.13354492 1555.6333313 C-131.73507319 1557.35791098 -132.33657448 1559.08250007 -132.93804932 1560.80709839 C-136.79552618 1571.86736688 -140.65627627 1582.92648765 -144.52043724 1593.98442268 C-146.62902047 1600.01854594 -148.73731474 1606.05277016 -150.8454895 1612.08703613 C-151.0809914 1612.7611063 -151.3164933 1613.43517647 -151.55913162 1614.129673 C-158.40292458 1633.71915251 -165.2240493 1653.31633943 -172.01821899 1672.9230957 C-177.24594886 1688.00826795 -182.50119664 1703.08352851 -187.78250122 1718.15002441 C-190.87362756 1726.96882932 -193.95840192 1735.78979316 -197.0329895 1744.61437988 C-197.3731308 1745.59046204 -197.71327209 1746.56654419 -198.0637207 1747.57220459 C-199.70952556 1752.29540983 -201.35451404 1757.01889712 -202.99832153 1761.74279785 C-203.59578616 1763.45781442 -204.19327828 1765.17282141 -204.790802 1766.88781738 C-205.05377075 1767.64449203 -205.3167395 1768.40116669 -205.587677 1769.18077087 C-207.6614475 1775.12932758 -209.8169929 1781.03992048 -211.9704895 1786.96203613 C-341.0004895 1786.96203613 -470.0304895 1786.96203613 -602.9704895 1786.96203613 C-602.29358221 1782.22368512 -601.75998367 1778.84506987 -600.23074341 1774.51647949 C-599.69103661 1772.97356232 -599.69103661 1772.97356232 -599.14042664 1771.3994751 C-598.74661301 1770.29476868 -598.35279938 1769.19006226 -597.947052 1768.05187988 C-597.53434555 1766.87780579 -597.1216391 1765.70373169 -596.69642639 1764.49407959 C-595.57072153 1761.29544427 -594.43933333 1758.09892846 -593.305439 1754.90319443 C-592.10552163 1751.51672201 -590.91324684 1748.12756102 -589.72024536 1744.73864746 C-587.75682023 1739.16398452 -585.78937635 1733.59075699 -583.81863403 1728.01867676 C-580.09258523 1717.48319616 -576.38448761 1706.94140923 -572.67648315 1696.39956665 C-571.52142953 1693.11668046 -570.36543659 1689.83412625 -569.20925903 1686.55163574 C-562.86267433 1668.52820842 -556.5614249 1650.48910511 -550.26762772 1632.44720078 C-543.31383646 1612.51365859 -536.33006518 1592.59096279 -529.31375122 1572.67932129 C-522.83303727 1554.28500856 -516.39414772 1535.87632505 -509.9704895 1517.46203613 C-502.29314423 1495.45406223 -494.58697406 1473.45652826 -486.837677 1451.47375488 C-482.09879105 1438.02795823 -477.38189835 1424.57457961 -472.6736145 1411.11804199 C-472.02079239 1409.25249643 -471.36796042 1407.38695431 -470.71511841 1405.52141571 C-469.1334621 1401.00166217 -467.55193839 1396.48186225 -465.9704895 1391.96203613 C-548.65944713 1391.72206316 -631.34844683 1391.49947313 -714.03765869 1391.36923218 C-715.26164533 1391.36729938 -716.48563196 1391.36536658 -717.7467091 1391.36337521 C-744.34776468 1391.3214737 -770.94882394 1391.28269126 -797.54988872 1391.24712152 C-810.59520048 1391.22965893 -823.64051123 1391.21150716 -836.68582153 1391.19299316 C-838.63306075 1391.19024722 -838.63306075 1391.19024722 -840.61963814 1391.18744581 C-882.69053728 1391.12779566 -924.76117304 1391.02264406 -966.83191264 1390.89387504 C-1010.06806655 1390.76177943 -1053.30407472 1390.67563088 -1096.54042702 1390.64722627 C-1102.64840278 1390.64319215 -1108.75637804 1390.63863324 -1114.86435318 1390.63375473 C-1116.06648048 1390.63281081 -1117.26860779 1390.63186689 -1118.50716319 1390.63089436 C-1137.85178766 1390.61435553 -1157.19596125 1390.54943742 -1176.54040191 1390.46638766 C-1195.99208826 1390.38391135 -1215.44332802 1390.35249787 -1234.89518307 1390.37301685 C-1246.44976736 1390.38365861 -1258.00271603 1390.35534021 -1269.55700469 1390.27087053 C-1277.28184266 1390.21825977 -1285.00561322 1390.2168204 -1292.73052571 1390.25639074 C-1297.12878878 1390.27747308 -1301.5239663 1390.27687725 -1305.92189454 1390.21367158 C-1329.09133414 1389.5661161 -1329.09133414 1389.5661161 -1348.79492503 1400.62807298 C-1349.99050848 1401.82483333 -1351.16876428 1403.03925186 -1352.32577457 1404.27334355 C-1354.82002622 1406.83428841 -1357.59120088 1408.8475192 -1360.4704895 1410.96203613 C-1365.65364751 1414.94102612 -1370.81488812 1418.94741531 -1375.9704895 1422.96203613 C-1384.2960111 1429.44430412 -1392.65385528 1435.88277714 -1401.025177 1442.30578613 C-1408.14358405 1447.7732908 -1415.23497764 1453.27453527 -1422.31692505 1458.78918457 C-1427.71710585 1462.99243279 -1433.1360865 1467.16996918 -1438.5642395 1471.33703613 C-1442.71290318 1474.52831589 -1446.84081431 1477.74624913 -1450.9704895 1480.96203613 C-1457.15195073 1485.77555336 -1463.34970833 1490.56628493 -1469.5642395 1495.33703613 C-1473.71290339 1498.52831605 -1477.84079198 1501.74627749 -1481.9704895 1504.96203613 C-1490.2960111 1511.44430412 -1498.65385528 1517.88277714 -1507.025177 1524.30578613 C-1514.14358405 1529.7732908 -1521.23497764 1535.27453527 -1528.31692505 1540.78918457 C-1533.71710585 1544.99243279 -1539.1360865 1549.16996918 -1544.5642395 1553.33703613 C-1548.71290339 1556.52831605 -1552.84079198 1559.74627749 -1556.9704895 1562.96203613 C-1565.2960111 1569.44430412 -1573.65385528 1575.88277714 -1582.025177 1582.30578613 C-1589.14358405 1587.7732908 -1596.23497764 1593.27453527 -1603.31692505 1598.78918457 C-1608.71710585 1602.99243279 -1614.1360865 1607.16996918 -1619.5642395 1611.33703613 C-1623.71290339 1614.52831605 -1627.84079198 1617.74627749 -1631.9704895 1620.96203613 C-1640.2960111 1627.44430412 -1648.65385528 1633.88277714 -1657.025177 1640.30578613 C-1664.14358405 1645.7732908 -1671.23497764 1651.27453527 -1678.31692505 1656.78918457 C-1683.71710585 1660.99243279 -1689.1360865 1665.16996918 -1694.5642395 1669.33703613 C-1698.71290339 1672.52831605 -1702.84079198 1675.74627749 -1706.9704895 1678.96203613 C-1715.2960111 1685.44430412 -1723.65385528 1691.88277714 -1732.025177 1698.30578613 C-1739.14358405 1703.7732908 -1746.23497764 1709.27453527 -1753.31692505 1714.78918457 C-1758.71710585 1718.99243279 -1764.1360865 1723.16996918 -1769.5642395 1727.33703613 C-1773.71290339 1730.52831605 -1777.84079198 1733.74627749 -1781.9704895 1736.96203613 C-1790.2960111 1743.44430412 -1798.65385528 1749.88277714 -1807.025177 1756.30578613 C-1811.81706447 1759.9863381 -1816.60371114 1763.67275573 -1821.368927 1767.38781738 C-1822.14083374 1767.9894873 -1822.91274048 1768.59115723 -1823.70803833 1769.21105957 C-1825.19826139 1770.37344294 -1826.68774979 1771.53676915 -1828.17630005 1772.70129395 C-1829.59461464 1773.8077507 -1831.02326175 1774.90109904 -1832.46227384 1775.98050028 C-1835.01710016 1777.93461429 -1835.01710016 1777.93461429 -1837.35444331 1780.24330753 C-1846.51535249 1788.39179423 -1854.8979135 1788.21776147 -1866.75009155 1788.04432678 C-1868.752738 1788.04825588 -1870.7553799 1788.05614425 -1872.75799727 1788.06762928 C-1878.2384438 1788.08768527 -1883.71729733 1788.05185237 -1889.197541 1788.00662673 C-1895.11558373 1787.96767103 -1901.03354049 1787.98091921 -1906.95167542 1787.98774719 C-1917.864276 1787.99276745 -1928.77629928 1787.95784875 -1939.68875426 1787.90367926 C-1949.76349568 1787.85409503 -1959.83806616 1787.82509351 -1969.91292572 1787.81593132 C-1970.58170634 1787.81531266 -1971.25048696 1787.81469401 -1971.93953366 1787.8140566 C-1975.33616766 1787.81101145 -1978.73280184 1787.80829905 -1982.12943622 1787.80571472 C-2006.16497303 1787.78682935 -2030.20024085 1787.72624473 -2054.23562622 1787.64099121 C-2077.58033827 1787.5582833 -2100.92497662 1787.49455445 -2124.26980591 1787.4564209 C-2124.9898566 1787.45523716 -2125.70990729 1787.45405343 -2126.4517777 1787.45283382 C-2133.68306388 1787.44096677 -2140.91435063 1787.4294845 -2148.14563788 1787.41828409 C-2162.87556875 1787.39546041 -2177.60549482 1787.37006914 -2192.3354187 1787.34312439 C-2193.35122421 1787.34127098 -2193.35122421 1787.34127098 -2194.38755104 1787.33938012 C-2239.58197708 1787.25662522 -2284.77624839 1787.11383674 -2329.9704895 1786.96203613 C-2328.53706364 1783.93910647 -2327.39177328 1782.22004995 -2324.6892395 1780.21984863 C-2324.02118286 1779.71816162 -2323.35312622 1779.21647461 -2322.66482544 1778.69958496 C-2321.94069458 1778.16744385 -2321.21656372 1777.63530273 -2320.4704895 1777.08703613 C-2318.9229785 1775.92772837 -2317.37612513 1774.76754234 -2315.8298645 1773.60656738 C-2315.02871216 1773.00795898 -2314.22755981 1772.40935059 -2313.40213013 1771.79260254 C-2309.47155961 1768.83362486 -2305.59694547 1765.80384708 -2301.7204895 1762.77453613 C-2296.6491431 1758.82117149 -2291.57128334 1754.87734396 -2286.4704895 1750.96203613 C-2278.27350576 1744.66773996 -2270.12444956 1738.31190291 -2261.9704895 1731.96203613 C-2252.7906094 1724.81323784 -2243.60594568 1717.6720833 -2234.3767395 1710.58703613 C-2230.22807582 1707.39575638 -2226.10016469 1704.17782314 -2221.9704895 1700.96203613 C-2215.78902827 1696.1485189 -2209.59127068 1691.35778734 -2203.3767395 1686.58703613 C-2199.22807582 1683.39575638 -2195.10016469 1680.17782314 -2190.9704895 1676.96203613 C-2184.78902827 1672.1485189 -2178.59127068 1667.35778734 -2172.3767395 1662.58703613 C-2168.22807582 1659.39575638 -2164.10016469 1656.17782314 -2159.9704895 1652.96203613 C-2153.78902827 1648.1485189 -2147.59127068 1643.35778734 -2141.3767395 1638.58703613 C-2137.22807582 1635.39575638 -2133.10016469 1632.17782314 -2128.9704895 1628.96203613 C-2123.81491598 1624.94737988 -2118.65364722 1620.9410259 -2113.4704895 1616.96203613 C-2105.27350576 1610.66773996 -2097.12444956 1604.31190291 -2088.9704895 1597.96203613 C-2079.7906094 1590.81323784 -2070.60594568 1583.6720833 -2061.3767395 1576.58703613 C-2057.22807582 1573.39575638 -2053.10016469 1570.17782314 -2048.9704895 1566.96203613 C-2042.78902827 1562.1485189 -2036.59127068 1557.35778734 -2030.3767395 1552.58703613 C-2026.22807582 1549.39575638 -2022.10016469 1546.17782314 -2017.9704895 1542.96203613 C-2011.78902827 1538.1485189 -2005.59127068 1533.35778734 -1999.3767395 1528.58703613 C-1995.22807582 1525.39575638 -1991.10016469 1522.17782314 -1986.9704895 1518.96203613 C-1981.81491598 1514.94737988 -1976.65364722 1510.9410259 -1971.4704895 1506.96203613 C-1963.27350576 1500.66773996 -1955.12444956 1494.31190291 -1946.9704895 1487.96203613 C-1937.7906094 1480.81323784 -1928.60594568 1473.6720833 -1919.3767395 1466.58703613 C-1915.22807582 1463.39575638 -1911.10016469 1460.17782314 -1906.9704895 1456.96203613 C-1900.78902827 1452.1485189 -1894.59127068 1447.35778734 -1888.3767395 1442.58703613 C-1884.22807582 1439.39575638 -1880.10016469 1436.17782314 -1875.9704895 1432.96203613 C-1869.78902827 1428.1485189 -1863.59127068 1423.35778734 -1857.3767395 1418.58703613 C-1852.51812332 1414.84963907 -1847.68533154 1411.07886228 -1842.85134888 1407.30969238 C-1836.24667949 1402.16398296 -1829.60733078 1397.06729865 -1822.9704895 1391.96203613 C-2172.7704895 1391.63203613 -2522.5704895 1391.30203613 -2882.9704895 1390.96203613 C-2875.06472444 1383.05627108 -2866.3092525 1376.40875348 -2857.35891724 1369.75012207 C-2852.25925875 1365.94988723 -2847.22858692 1362.06944216 -2842.2204895 1358.14953613 C-2835.7788603 1353.11099944 -2829.27477737 1348.16556399 -2822.7204895 1343.27453613 C-2816.45668191 1338.59920676 -2810.24660288 1333.87190355 -2804.11917114 1329.01940918 C-2797.53082166 1323.80663858 -2790.84297125 1318.7248005 -2784.16140747 1313.63244629 C-2780.51181346 1310.84990537 -2776.86610461 1308.06228691 -2773.2204895 1305.27453613 C-2772.1535083 1304.45880127 -2772.1535083 1304.45880127 -2771.06497192 1303.62658691 C-2765.81722786 1299.61321328 -2760.58002277 1295.58637675 -2755.3454895 1291.55578613 C-2750.6611313 1287.95243367 -2745.96314584 1284.36688521 -2741.2673645 1280.77844238 C-2736.99611624 1277.51354937 -2732.73017836 1274.24199655 -2728.4704895 1270.96203613 C-2719.91838799 1264.37776892 -2711.33929312 1257.8288166 -2702.76345825 1251.2755127 C-2694.61450726 1245.04800619 -2686.47168935 1238.81296002 -2678.3454895 1232.55578613 C-2673.6611313 1228.95243367 -2668.96314584 1225.36688521 -2664.2673645 1221.77844238 C-2659.99611624 1218.51354937 -2655.73017836 1215.24199655 -2651.4704895 1211.96203613 C-2642.91838799 1205.37776892 -2634.33929312 1198.8288166 -2625.76345825 1192.2755127 C-2617.61450726 1186.04800619 -2609.47168935 1179.81296002 -2601.3454895 1173.55578613 C-2596.6611313 1169.95243367 -2591.96314584 1166.36688521 -2587.2673645 1162.77844238 C-2582.99611624 1159.51354937 -2578.73017836 1156.24199655 -2574.4704895 1152.96203613 C-2565.91838799 1146.37776892 -2557.33929312 1139.8288166 -2548.76345825 1133.2755127 C-2540.61450726 1127.04800619 -2532.47168935 1120.81296002 -2524.3454895 1114.55578613 C-2519.6611313 1110.95243367 -2514.96314584 1107.36688521 -2510.2673645 1103.77844238 C-2505.99611624 1100.51354937 -2501.73017836 1097.24199655 -2497.4704895 1093.96203613 C-2488.91838799 1087.37776892 -2480.33929312 1080.8288166 -2471.76345825 1074.2755127 C-2463.61450726 1068.04800619 -2455.47168935 1061.81296002 -2447.3454895 1055.55578613 C-2442.6611313 1051.95243367 -2437.96314584 1048.36688521 -2433.2673645 1044.77844238 C-2428.99611624 1041.51354937 -2424.73017836 1038.24199655 -2420.4704895 1034.96203613 C-2411.91838799 1028.37776892 -2403.33929312 1021.8288166 -2394.76345825 1015.2755127 C-2387.65913623 1009.84632166 -2380.55531998 1004.41665064 -2373.4704895 998.96203613 C-2364.91838799 992.37776892 -2356.33929312 985.8288166 -2347.76345825 979.2755127 C-2339.61450726 973.04800619 -2331.47168935 966.81296002 -2323.3454895 960.55578613 C-2318.6611313 956.95243367 -2313.96314584 953.36688521 -2309.2673645 949.77844238 C-2304.99611624 946.51354937 -2300.73017836 943.24199655 -2296.4704895 939.96203613 C-2287.91838799 933.37776892 -2279.33929312 926.8288166 -2270.76345825 920.2755127 C-2262.61450726 914.04800619 -2254.47168935 907.81296002 -2246.3454895 901.55578613 C-2241.6611313 897.95243367 -2236.96314584 894.36688521 -2232.2673645 890.77844238 C-2227.99611624 887.51354937 -2223.73017836 884.24199655 -2219.4704895 880.96203613 C-2210.91838799 874.37776892 -2202.33929312 867.8288166 -2193.76345825 861.2755127 C-2185.61450726 855.04800619 -2177.47168935 848.81296002 -2169.3454895 842.55578613 C-2164.6611313 838.95243367 -2159.96314584 835.36688521 -2155.2673645 831.77844238 C-2150.99611624 828.51354937 -2146.73017836 825.24199655 -2142.4704895 821.96203613 C-2133.91838799 815.37776892 -2125.33929312 808.8288166 -2116.76345825 802.2755127 C-2108.61450726 796.04800619 -2100.47168935 789.81296002 -2092.3454895 783.55578613 C-2087.6611313 779.95243367 -2082.96314584 776.36688521 -2078.2673645 772.77844238 C-2073.99611624 769.51354937 -2069.73017836 766.24199655 -2065.4704895 762.96203613 C-2056.91838799 756.37776892 -2048.33929312 749.8288166 -2039.76345825 743.2755127 C-2031.61450726 737.04800619 -2023.47168935 730.81296002 -2015.3454895 724.55578613 C-2010.6611313 720.95243367 -2005.96314584 717.36688521 -2001.2673645 713.77844238 C-1996.99611624 710.51354937 -1992.73017836 707.24199655 -1988.4704895 703.96203613 C-1979.91838799 697.37776892 -1971.33929312 690.8288166 -1962.76345825 684.2755127 C-1960.58234366 682.608684 -1958.40140345 680.94162735 -1956.2204895 679.27453613 C-1955.51359985 678.73441895 -1954.80671021 678.19430176 -1954.07839966 677.63781738 C-1950.84664912 675.16723013 -1947.61799698 672.69293578 -1944.400177 670.20422363 C-1937.67284784 665.00223751 -1930.88027658 659.91935833 -1923.9704895 654.96203613 C-1922.62004619 658.67086507 -1923.34288509 661.01513955 -1924.52737427 664.71520996 C-1925.08299545 666.47749939 -1925.08299545 666.47749939 -1925.64984131 668.27539062 C-1926.07039628 669.57332496 -1926.49108555 670.87121578 -1926.91189575 672.16906738 C-1927.34672013 673.53623604 -1927.78056471 674.90371665 -1928.21350098 676.27148438 C-1929.14904902 679.22086912 -1930.09078433 682.16817822 -1931.03735352 685.11404419 C-1932.55423919 689.83570721 -1934.05699129 694.56178827 -1935.55667114 699.28894043 C-1935.8105897 700.08919805 -1936.06450827 700.88945566 -1936.32612133 701.71396351 C-1936.84420707 703.34680086 -1937.36225769 704.97964934 -1937.88027382 706.61250877 C-1938.67241011 709.10785262 -1939.4658647 711.60277413 -1940.25959778 714.09761047 C-1945.10765008 729.34374077 -1949.84599994 744.62282397 -1954.56152344 759.91036987 C-1962.67774474 786.22141594 -1970.90009296 812.49759299 -1979.19422531 838.75305557 C-1986.52708012 861.96677326 -1993.78410892 885.20256551 -2000.9704895 908.46203613 C-2008.62891096 933.24931631 -2016.37675099 958.00683491 -2024.19174957 982.74518204 C-2031.65049784 1006.35728483 -2039.03191632 1029.99206901 -2046.3454895 1053.64953613 C-2053.11320823 1075.53873988 -2059.90887751 1097.41847579 -2066.7829895 1119.27453613 C-2067.14841858 1120.43834808 -2067.51384766 1121.60216003 -2067.89035034 1122.80123901 C-2068.90084616 1126.01819867 -2069.913699 1129.23440457 -2070.92752075 1132.45031738 C-2071.22428207 1133.39549225 -2071.5210434 1134.34066711 -2071.82679749 1135.31448364 C-2072.09698196 1136.16924286 -2072.36716644 1137.02400208 -2072.64553833 1137.90466309 C-2072.87896439 1138.64537552 -2073.11239044 1139.38608795 -2073.35289001 1140.14924622 C-2073.9704895 1141.96203613 -2073.9704895 1141.96203613 -2074.9704895 1143.96203613 C-2019.13826955 1144.08922055 -1963.30603275 1144.20079422 -1907.47366333 1144.22648621 C-1906.64694657 1144.22687121 -1905.82022981 1144.22725621 -1904.96846102 1144.22765289 C-1887.00042779 1144.23592398 -1869.03239479 1144.24130272 -1851.06435984 1144.24370315 C-1842.25247065 1144.24489796 -1833.44058163 1144.24673173 -1824.62869263 1144.24890137 C-1823.31337959 1144.2492089 -1823.31337959 1144.2492089 -1821.97149457 1144.24952266 C-1793.56414786 1144.25646402 -1765.15706483 1144.30557362 -1736.74981217 1144.37661865 C-1707.55058583 1144.44942115 -1678.35161759 1144.47954636 -1649.15230231 1144.4561949 C-1645.02538359 1144.45291435 -1640.89846468 1144.45012019 -1636.77154541 1144.4476223 C-1635.55322484 1144.44686232 -1635.55322484 1144.44686232 -1634.31029173 1144.44608699 C-1621.2509466 1144.43919034 -1608.19209992 1144.47710263 -1595.13288395 1144.53189523 C-1581.99461528 1144.58605877 -1568.85699539 1144.59272145 -1555.7186743 1144.55138425 C-1547.91837991 1144.52827254 -1540.12010791 1144.54109402 -1532.32004085 1144.60624227 C-1526.48509385 1144.65095373 -1520.65168834 1144.6273057 -1514.81673825 1144.57778957 C-1512.46382652 1144.56832356 -1510.11069988 1144.58063564 -1507.75805748 1144.61747233 C-1494.84330525 1144.80656946 -1485.87161406 1144.11461194 -1476.13702124 1135.04332738 C-1474.99435766 1133.92040509 -1473.86002949 1132.78893208 -1472.73457873 1131.64875879 C-1469.6816786 1128.72974781 -1466.26114607 1126.31014039 -1462.8454895 1123.83703613 C-1456.69805894 1119.27914649 -1450.65391588 1114.60927029 -1444.650177 1109.86437988 C-1440.52419687 1106.60388767 -1436.37311128 1103.37598878 -1432.2204895 1100.14953613 C-1431.46268188 1099.5605957 -1430.70487427 1098.97165527 -1429.92410278 1098.36486816 C-1428.37779342 1097.16327121 -1426.83140627 1095.96177437 -1425.28494263 1094.76037598 C-1421.51233314 1091.82904249 -1417.74150799 1088.89541585 -1413.9704895 1085.96203613 C-1413.23193726 1085.38767822 -1412.49338501 1084.81332031 -1411.73245239 1084.22155762 C-1407.91902485 1081.25592747 -1404.10628987 1078.28941347 -1400.29470825 1075.32141113 C-1392.66589459 1069.38220049 -1385.02542307 1063.45967647 -1377.35720825 1057.57141113 C-1370.98327309 1052.66808987 -1364.64602217 1047.71718753 -1358.30105591 1042.77648926 C-1353.77970751 1039.25641161 -1349.25599426 1035.73937389 -1344.73269653 1032.22180176 C-1340.91922359 1029.25604401 -1337.10637996 1026.28948363 -1333.29470825 1023.32141113 C-1325.66589459 1017.38220049 -1318.02542307 1011.45967647 -1310.35720825 1005.57141113 C-1303.20295177 1000.06780669 -1296.09200092 994.50788728 -1288.9704895 988.96203613 C-1279.78402887 981.80811328 -1270.59212223 974.66271271 -1261.35720825 967.57141113 C-1254.98327309 962.66808987 -1248.64602217 957.71718753 -1242.30105591 952.77648926 C-1237.77970751 949.25641161 -1233.25599426 945.73937389 -1228.73269653 942.22180176 C-1224.91922359 939.25604401 -1221.10637996 936.28948363 -1217.29470825 933.32141113 C-1209.66589459 927.38220049 -1202.02542307 921.45967647 -1194.35720825 915.57141113 C-1187.20295177 910.06780669 -1180.09200092 904.50788728 -1172.9704895 898.96203613 C-1163.78402887 891.80811328 -1154.59212223 884.66271271 -1145.35720825 877.57141113 C-1138.98327309 872.66808987 -1132.64602217 867.71718753 -1126.30105591 862.77648926 C-1121.77970751 859.25641161 -1117.25599426 855.73937389 -1112.73269653 852.22180176 C-1108.91922359 849.25604401 -1105.10637996 846.28948363 -1101.29470825 843.32141113 C-1093.66589459 837.38220049 -1086.02542307 831.45967647 -1078.35720825 825.57141113 C-1071.98327309 820.66808987 -1065.64602217 815.71718753 -1059.30105591 810.77648926 C-1054.77970751 807.25641161 -1050.25599426 803.73937389 -1045.73269653 800.22180176 C-1041.91922359 797.25604401 -1038.10637996 794.28948363 -1034.29470825 791.32141113 C-1026.66589459 785.38220049 -1019.02542307 779.45967647 -1011.35720825 773.57141113 C-1004.20295177 768.06780669 -997.09200092 762.50788728 -989.9704895 756.96203613 C-980.78402887 749.80811328 -971.59212223 742.66271271 -962.35720825 735.57141113 C-955.98327309 730.66808987 -949.64602217 725.71718753 -943.30105591 720.77648926 C-938.77970751 717.25641161 -934.25599426 713.73937389 -929.73269653 710.22180176 C-925.91922359 707.25604401 -922.10637996 704.28948363 -918.29470825 701.32141113 C-910.66589459 695.38220049 -903.02542307 689.45967647 -895.35720825 683.57141113 C-888.98327309 678.66808987 -882.64602217 673.71718753 -876.30105591 668.77648926 C-871.77970751 665.25641161 -867.25599426 661.73937389 -862.73269653 658.22180176 C-858.91922359 655.25604401 -855.10637996 652.28948363 -851.29470825 649.32141113 C-843.66589459 643.38220049 -836.02542307 637.45967647 -828.35720825 631.57141113 C-821.20295177 626.06780669 -814.09200092 620.50788728 -806.9704895 614.96203613 C-797.78402887 607.80811328 -788.59212223 600.66271271 -779.35720825 593.57141113 C-772.98327309 588.66808987 -766.64602217 583.71718753 -760.30105591 578.77648926 C-755.77970751 575.25641161 -751.25599426 571.73937389 -746.73269653 568.22180176 C-742.91922359 565.25604401 -739.10637996 562.28948363 -735.29470825 559.32141113 C-727.66589459 553.38220049 -720.02542307 547.45967647 -712.35720825 541.57141113 C-705.98327309 536.66808987 -699.64602217 531.71718753 -693.30105591 526.77648926 C-688.77970751 523.25641161 -684.25599426 519.73937389 -679.73269653 516.22180176 C-675.91922359 513.25604401 -672.10637996 510.28948363 -668.29470825 507.32141113 C-660.66589459 501.38220049 -653.02542307 495.45967647 -645.35720825 489.57141113 C-638.20295177 484.06780669 -631.09200092 478.50788728 -623.9704895 472.96203613 C-614.78402887 465.80811328 -605.59212223 458.66271271 -596.35720825 451.57141113 C-589.98327309 446.66808987 -583.64602217 441.71718753 -577.30105591 436.77648926 C-572.77970751 433.25641161 -568.25599426 429.73937389 -563.73269653 426.22180176 C-559.91922359 423.25604401 -556.10637996 420.28948363 -552.29470825 417.32141113 C-544.66589459 411.38220049 -537.02542307 405.45967647 -529.35720825 399.57141113 C-522.98327309 394.66808987 -516.64602217 389.71718753 -510.30105591 384.77648926 C-505.77970751 381.25641161 -501.25599426 377.73937389 -496.73269653 374.22180176 C-492.91922359 371.25604401 -489.10637996 368.28948363 -485.29470825 365.32141113 C-477.66589459 359.38220049 -470.02542307 353.45967647 -462.35720825 347.57141113 C-455.20295177 342.06780669 -448.09200092 336.50788728 -440.9704895 330.96203613 C-431.78402887 323.80811328 -422.59212223 316.66271271 -413.35720825 309.57141113 C-406.98327309 304.66808987 -400.64602217 299.71718753 -394.30105591 294.77648926 C-389.77970751 291.25641161 -385.25599426 287.73937389 -380.73269653 284.22180176 C-376.91922359 281.25604401 -373.10637996 278.28948363 -369.29470825 275.32141113 C-361.66589459 269.38220049 -354.02542307 263.45967647 -346.35720825 257.57141113 C-339.98327309 252.66808987 -333.64602217 247.71718753 -327.30105591 242.77648926 C-322.77970751 239.25641161 -318.25599426 235.73937389 -313.73269653 232.22180176 C-309.91922359 229.25604401 -306.10637996 226.28948363 -302.29470825 223.32141113 C-294.66589459 217.38220049 -287.02542307 211.45967647 -279.35720825 205.57141113 C-272.20295177 200.06780669 -265.09200092 194.50788728 -257.9704895 188.96203613 C-248.78402887 181.80811328 -239.59212223 174.66271271 -230.35720825 167.57141113 C-223.98327309 162.66808987 -217.64602217 157.71718753 -211.30105591 152.77648926 C-206.77970751 149.25641161 -202.25599426 145.73937389 -197.73269653 142.22180176 C-193.91922359 139.25604401 -190.10637996 136.28948363 -186.29470825 133.32141113 C-178.66589459 127.38220049 -171.02542307 121.45967647 -163.35720825 115.57141113 C-156.98327309 110.66808987 -150.64602217 105.71718753 -144.30105591 100.77648926 C-139.77970751 97.25641161 -135.25599426 93.73937389 -130.73269653 90.22180176 C-126.91922359 87.25604401 -123.10637996 84.28948363 -119.29470825 81.32141113 C-111.66589459 75.38220049 -104.02542307 69.45967647 -96.35720825 63.57141113 C-89.20295177 58.06780669 -82.09200092 52.50788728 -74.9704895 46.96203613 C-57.76664556 33.56460515 -57.76664556 33.56460515 -50.4704895 27.96203613 C-45.22895496 23.93621873 -40.00226097 19.89167678 -34.7829895 15.83703613 C-34.05853638 15.27500488 -33.33408325 14.71297363 -32.587677 14.13391113 C-31.87482544 13.57961426 -31.16197388 13.02531738 -30.42752075 12.45422363 C-29.39000083 11.66658418 -29.39000083 11.66658418 -28.33152092 10.86303282 C-25.95001695 9.01451816 -25.95001695 9.01451816 -23.90919507 6.90482378 C-16.56075783 -0.05222813 -9.58422771 -0.15489382 0 0 Z M-184.9704895 509.96203613 C-185.62533325 510.50730957 -186.280177 511.05258301 -186.9548645 511.61437988 C-192.65546322 516.32462035 -198.43267836 520.86062605 -204.368927 525.27062988 C-208.93377298 528.66861178 -213.44833012 532.13259169 -217.9704895 535.58703613 C-225.00531768 540.95802267 -232.06674437 546.29079711 -239.1579895 551.58703613 C-246.42193693 557.01500943 -253.60617247 562.53597487 -260.75125122 568.1192627 C-265.66417846 571.9558172 -270.6204793 575.72557881 -275.618927 579.45031738 C-280.07230107 582.77711871 -284.48773017 586.1539479 -288.9079895 589.52453613 C-289.80807739 590.21072021 -290.70816528 590.8969043 -291.63552856 591.60388184 C-296.18856834 595.0757556 -300.74008105 598.54962379 -305.290802 602.02453613 C-313.88507134 608.58369911 -322.49693535 615.11624953 -331.1579895 621.58703613 C-338.42184408 627.01513601 -345.60616971 632.53597271 -352.75125122 638.1192627 C-357.66417846 641.9558172 -362.6204793 645.72557881 -367.618927 649.45031738 C-372.07230107 652.77711871 -376.48773017 656.1539479 -380.9079895 659.52453613 C-381.80807739 660.21072021 -382.70816528 660.8969043 -383.63552856 661.60388184 C-388.18856834 665.0757556 -392.74008105 668.54962379 -397.290802 672.02453613 C-405.88507134 678.58369911 -414.49693535 685.11624953 -423.1579895 691.58703613 C-430.42184408 697.01513601 -437.60616971 702.53597271 -444.75125122 708.1192627 C-449.66417846 711.9558172 -454.6204793 715.72557881 -459.618927 719.45031738 C-464.07230107 722.77711871 -468.48773017 726.1539479 -472.9079895 729.52453613 C-473.80807739 730.21072021 -474.70816528 730.8969043 -475.63552856 731.60388184 C-480.18856834 735.0757556 -484.74008105 738.54962379 -489.290802 742.02453613 C-497.88507134 748.58369911 -506.49693535 755.11624953 -515.1579895 761.58703613 C-522.42184408 767.01513601 -529.60616971 772.53597271 -536.75125122 778.1192627 C-541.66417846 781.9558172 -546.6204793 785.72557881 -551.618927 789.45031738 C-556.07230107 792.77711871 -560.48773017 796.1539479 -564.9079895 799.52453613 C-565.80807739 800.21072021 -566.70816528 800.8969043 -567.63552856 801.60388184 C-572.18856834 805.0757556 -576.74008105 808.54962379 -581.290802 812.02453613 C-589.88507134 818.58369911 -598.49693535 825.11624953 -607.1579895 831.58703613 C-614.42184408 837.01513601 -621.60616971 842.53597271 -628.75125122 848.1192627 C-633.66417846 851.9558172 -638.6204793 855.72557881 -643.618927 859.45031738 C-648.07230107 862.77711871 -652.48773017 866.1539479 -656.9079895 869.52453613 C-657.80807739 870.21072021 -658.70816528 870.8969043 -659.63552856 871.60388184 C-664.18856834 875.0757556 -668.74008105 878.54962379 -673.290802 882.02453613 C-681.88507134 888.58369911 -690.49693535 895.11624953 -699.1579895 901.58703613 C-706.42184408 907.01513601 -713.60616971 912.53597271 -720.75125122 918.1192627 C-725.66417846 921.9558172 -730.6204793 925.72557881 -735.618927 929.45031738 C-740.07230107 932.77711871 -744.48773017 936.1539479 -748.9079895 939.52453613 C-749.80807739 940.21072021 -750.70816528 940.8969043 -751.63552856 941.60388184 C-756.18856834 945.0757556 -760.74008105 948.54962379 -765.290802 952.02453613 C-773.88507134 958.58369911 -782.49693535 965.11624953 -791.1579895 971.58703613 C-798.42184408 977.01513601 -805.60616971 982.53597271 -812.75125122 988.1192627 C-817.66417846 991.9558172 -822.6204793 995.72557881 -827.618927 999.45031738 C-832.07230107 1002.77711871 -836.48773017 1006.1539479 -840.9079895 1009.52453613 C-841.80807739 1010.21072021 -842.70816528 1010.8969043 -843.63552856 1011.60388184 C-848.18856834 1015.0757556 -852.74008105 1018.54962379 -857.290802 1022.02453613 C-865.88507134 1028.58369911 -874.49693535 1035.11624953 -883.1579895 1041.58703613 C-890.42184408 1047.01513601 -897.60616971 1052.53597271 -904.75125122 1058.1192627 C-909.66417846 1061.9558172 -914.6204793 1065.72557881 -919.618927 1069.45031738 C-924.07230107 1072.77711871 -928.48773017 1076.1539479 -932.9079895 1079.52453613 C-933.80807739 1080.21072021 -934.70816528 1080.8969043 -935.63552856 1081.60388184 C-940.18856834 1085.0757556 -944.74008105 1088.54962379 -949.290802 1092.02453613 C-957.88507134 1098.58369911 -966.49693535 1105.11624953 -975.1579895 1111.58703613 C-982.40746497 1117.00439085 -989.5818378 1122.50913968 -996.70730591 1128.08850098 C-1002.03020327 1132.25200288 -1007.42197513 1136.30660452 -1012.88064575 1140.29016113 C-1015.06202207 1141.79588611 -1015.06202207 1141.79588611 -1015.9704895 1143.96203613 C-810.0504895 1143.96203613 -604.1304895 1143.96203613 -391.9704895 1143.96203613 C-390.11665301 1139.01847216 -388.31673248 1134.12664442 -386.6489563 1129.12683105 C-386.43692062 1128.49247635 -386.22488495 1127.85812164 -386.00642395 1127.20454407 C-385.30934954 1125.11769566 -384.61445754 1123.03012841 -383.91970825 1120.94250488 C-383.41953563 1119.44266413 -382.91927413 1117.94285302 -382.41893005 1116.44306946 C-381.36474622 1113.2819915 -380.31164418 1110.12055577 -379.25930786 1106.9588623 C-377.95846288 1103.05079898 -376.65503149 1099.14360487 -375.35076618 1095.23668194 C-369.26114077 1076.99091304 -363.2493849 1058.72117696 -357.30722809 1040.42686081 C-352.61570508 1025.985018 -347.88422707 1011.5567741 -343.12283325 997.13781738 C-342.79136984 996.13403486 -342.45990643 995.13025234 -342.11839867 994.09605217 C-340.41750536 988.94598749 -338.71587605 983.79616636 -337.01382446 978.64648438 C-333.37579251 967.63921052 -329.74146651 956.63071266 -326.10720825 945.62219238 C-325.74884007 944.53673 -325.39047188 943.45126762 -325.02124405 942.33291245 C-319.06768174 924.29914566 -313.13388573 906.25900958 -307.2204895 888.21203613 C-299.05946526 863.30745182 -290.86380655 838.41439499 -282.6579895 813.52453613 C-280.16437259 805.96077602 -277.67083053 798.39699124 -275.17752075 790.83312988 C-274.87113426 789.90365791 -274.56474777 788.97418594 -274.24907684 788.01654816 C-268.10495424 769.37652882 -261.97301158 750.73251809 -255.8454895 732.08703613 C-253.89246234 726.14429564 -251.93936714 720.20157752 -249.9861145 714.25891113 C-249.74321623 713.51990381 -249.50031796 712.78089649 -249.25005913 712.01949501 C-242.1964863 690.56018096 -235.1299069 669.10514806 -228.06384087 647.64994526 C-226.6550969 643.3724726 -225.24637972 639.09499112 -223.837677 634.81750488 C-223.55800709 633.96830412 -223.27833717 633.11910336 -222.99019241 632.24416924 C-218.86887047 619.72978053 -214.74987545 607.21462771 -210.63253403 594.69892883 C-209.73384287 591.96716007 -208.83510021 589.23540826 -207.93634033 586.50366211 C-207.34664855 584.71130391 -206.75695739 582.91894552 -206.16726685 581.12658691 C-205.87850992 580.24891537 -205.589753 579.37124382 -205.29224586 578.46697617 C-203.61287365 573.36241971 -201.93383766 568.25775286 -200.25514412 563.15297318 C-199.46976872 560.76506562 -198.68403161 558.37727731 -197.89825439 555.98950195 C-196.91166227 552.99125413 -195.92682635 549.99243833 -194.94335938 546.99316406 C-192.88539181 540.72370481 -190.81073645 534.46197428 -188.65213013 528.22619629 C-188.31256287 527.23819534 -187.97299561 526.2501944 -187.62313843 525.23225403 C-187.01546235 523.47187031 -186.39934309 521.71436439 -185.77243042 519.96073914 C-184.46950336 516.17756427 -183.74990973 513.7873321 -184.9704895 509.96203613 Z " fill="#000000" transform="translate(2882.970489501953,-0.9620361328125)"/>
<path d="M0 0 C136.95 0 273.9 0 415 0 C415 18.15 415 36.3 415 55 C305.44 55 195.88 55 83 55 C83 77.11 83 99.22 83 122 C192.56 122 302.12 122 415 122 C415 140.15 415 158.3 415 177 C305.44 177 195.88 177 83 177 C83 200.76 83 224.52 83 249 C196.19 249 309.38 249 426 249 C423.65351691 267.77186474 417.04326205 285.76666797 412 304 C276.04 304 140.08 304 0 304 C0 203.68 0 103.36 0 0 Z " fill="#000000" transform="translate(3117,2103)"/>
<path d="M0 0 C85.19172001 0 85.19172001 0 122.56079102 21.24902344 C130.85681821 25.96004814 139.25330501 30.47628187 147.66186523 34.98242188 C155.98630781 39.44534305 164.25744872 43.99378707 172.50097656 48.60400391 C177.60024815 51.4525419 182.70677929 54.28804304 187.8125 57.125 C189.5296521 58.07922852 189.5296521 58.07922852 191.28149414 59.05273438 C203.28769963 65.72223425 215.31459094 72.35413091 227.34277344 78.98388672 C232.79260606 81.9879275 238.24100684 84.99456347 243.68951416 88.00100708 C246.70961729 89.66744466 249.72981335 91.33371379 252.75 93 C253.95833378 93.66666586 255.16666711 94.33333253 256.375 95 C256.973125 95.33 257.57125 95.66 258.1875 96 C321.62500004 131.00000002 321.62500004 131.00000002 323.43746948 131.99998474 C324.64590276 132.6667055 325.85433782 133.33342303 327.06277466 134.00013733 C330.08209344 135.66594998 333.10138134 137.33181854 336.12060547 138.99780273 C341.57609224 142.00802611 347.03180561 145.01783502 352.48866272 148.02557373 C369.34477044 157.31645012 386.1792431 166.64524631 403 176 C408.94 179.3 414.88 182.6 421 186 C421.33 124.62 421.66 63.24 422 0 C447.41 0 472.82 0 499 0 C499 102.96 499 205.92 499 312 C495.86196249 311.21549062 493.85360732 310.53329151 491.0859375 309.06640625 C490.33521973 308.67050293 489.58450195 308.27459961 488.81103516 307.86669922 C488.00714355 307.43631348 487.20325195 307.00592773 486.375 306.5625 C485.52599121 306.11148926 484.67698242 305.66047852 483.80224609 305.19580078 C476.87457081 301.50112636 470.00482904 297.70683353 463.15234375 293.875 C456.84498039 290.34922292 450.51551536 286.86351329 444.1875 283.375 C442.93699992 282.68540551 441.68651173 281.99578946 440.43603516 281.30615234 C437.89150037 279.9028831 435.34689588 278.49974037 432.80224609 277.09667969 C427.90086569 274.39405668 423.0002128 271.69011553 418.09960938 268.98608398 C415.69607337 267.65987568 413.29242124 266.3338782 410.88867188 265.00805664 C405.40263838 261.98200562 399.91718985 258.95491482 394.43434143 255.9230957 C381.424383 248.72917193 368.39670472 241.5722126 355.31640625 234.5065918 C346.50396886 229.74233077 337.74707519 224.88290543 329 220 C314.8479029 212.10558606 300.67648269 204.25428015 286.41625977 196.55664062 C279.98389583 193.08217048 273.57728571 189.56593819 267.19238281 186.00512695 C260.20237767 182.1073288 253.19592911 178.23953609 246.1875 174.375 C244.93660352 173.68514232 243.68570835 172.99528228 242.43481445 172.30541992 C239.89068021 170.90240637 237.34647853 169.49951517 234.80224609 168.09667969 C229.90086569 165.39405668 225.0002128 162.69011553 220.09960938 159.98608398 C217.69607337 158.65987568 215.29242124 157.3338782 212.88867188 156.00805664 C207.40261243 152.9819913 201.91713501 149.95489149 196.43426514 146.92304993 C193.35235975 145.21890036 190.27002814 143.51552283 187.1875 141.8125 C186.58331238 141.47866302 185.97912476 141.14482605 185.35662842 140.8008728 C177.13633298 136.26067509 168.89155005 131.76803725 160.625 127.3125 C152.90587182 123.15158186 145.24563747 118.90107564 137.625 114.5625 C128.28710614 109.24635237 118.85767602 104.1182285 109.38647461 99.04394531 C102.79513698 95.51089668 96.22383758 91.94637377 89.6875 88.3125 C88.97102295 87.91458252 88.2545459 87.51666504 87.51635742 87.10668945 C83.96921677 85.12770379 80.48612166 83.091673 77 81 C76.67 154.59 76.34 228.18 76 304 C50.92 304 25.84 304 0 304 C0 203.68 0 103.36 0 0 Z " fill="#000000" transform="translate(2358,2103)"/>
<path d="M0 0 C83.62929292 -0.04033135 83.62929292 -0.04033135 118.80859375 -0.04882812 C126.85791018 -0.05078538 134.90722658 -0.05280569 142.95654297 -0.05493164 C143.96510342 -0.05519539 144.97366386 -0.05545914 146.01278675 -0.05573088 C162.19966685 -0.06005546 178.38654332 -0.06792531 194.57342128 -0.0771528 C211.24130678 -0.08657376 227.90919041 -0.09207328 244.57707846 -0.09408849 C253.91563035 -0.09532592 263.25417467 -0.0982798 272.59272385 -0.10573006 C340.05534275 -0.15776072 340.05534275 -0.15776072 365.11572266 0.40844727 C366.34585779 0.43405222 366.34585779 0.43405222 367.60084414 0.46017444 C401.82953982 1.21123538 435.36657359 10.45734113 460.59375 34.46875 C481.59160902 56.61717664 484.72064937 83.37750614 484.13623047 112.46777344 C483.28195745 134.6176338 473.60945863 154.59009411 458 170 C456.88625 171.11181641 456.88625 171.11181641 455.75 172.24609375 C431.51532341 195.09975016 394.67070351 202.02222195 362.51123047 202.20532227 C361.40631823 202.21521903 360.30140598 202.2251158 359.16301155 202.23531246 C355.48109155 202.26695225 351.79916099 202.29183388 348.1171875 202.31640625 C346.13478452 202.3318766 344.15238155 202.34735275 342.16998172 202.36322176 C335.00267749 202.42050329 327.83533894 202.47074805 320.66795993 202.51765215 C315.38004701 202.55227046 310.09215207 202.58898474 304.80426025 202.62667847 C230.87015623 203.14996023 156.93547374 203.10305731 83 203 C83.00222061 203.71963425 83.00444122 204.43926849 83.00672913 205.18070984 C83.02725766 212.15934998 83.04223005 219.1379787 83.05181217 226.11664104 C83.05690478 229.6994378 83.06373343 233.2822085 83.07543945 236.86499023 C83.14294766 259.27374313 82.60583024 281.58428109 82 304 C54.94 304 27.88 304 0 304 C0 203.68 0 103.36 0 0 Z M82 55 C81.97660693 64.18987002 81.95894983 73.37972946 81.94818783 82.56962299 C81.94301702 86.83898804 81.93602786 91.1083324 81.92456055 95.37768555 C81.91352158 99.51447433 81.90767977 103.65124349 81.90512276 107.78804588 C81.90330565 109.34930924 81.89975993 110.91057179 81.89426994 112.47182655 C81.85538272 124.01258934 82.2973003 135.48087404 83 147 C116.30037882 147.0458193 149.60074977 147.08104045 182.90115313 147.10213066 C186.83628313 147.10463195 190.77141306 147.1072206 194.70654297 147.10986328 C195.88161891 147.11065021 195.88161891 147.11065021 197.08043376 147.11145304 C209.74996176 147.12014579 222.41947154 147.13590952 235.08898875 147.15430559 C248.09774831 147.17303613 261.10649836 147.18412339 274.11527085 147.18817699 C282.13657082 147.19091551 290.15781925 147.19955194 298.17910334 147.21583293 C304.33912132 147.22769601 310.49910035 147.22890339 316.65912819 147.22621536 C319.17935566 147.22676423 321.69958514 147.23072437 324.21980095 147.23841095 C327.67075417 147.24841734 331.12149008 147.24594809 334.57244873 147.24050903 C335.56081403 147.24633472 336.54917934 147.2521604 337.56749511 147.25816262 C354.06537385 147.188275 372.22479132 143.22050059 384.8125 131.875 C393.20877085 122.7117621 396.32768529 111.18824794 395.92333984 99.03637695 C395.25296761 86.34212561 392.29802101 75.75932741 382.875 66.75 C378.1702285 63.01720327 372.65928649 60.87397716 367 59 C365.9258358 58.6302153 365.9258358 58.6302153 364.82997131 58.25296021 C354.14857202 55.06585906 343.23846488 55.42209749 332.1953125 55.31640625 C329.71151353 55.28312465 327.22771852 55.24954661 324.743927 55.2157135 C282.18949495 54.68154445 239.62195336 54.8887635 197.06528974 54.92797053 C184.48630876 54.93936823 171.90732709 54.94470187 159.3283422 54.94967639 C133.55222242 54.95999819 107.77611181 54.97746966 82 55 Z " fill="#000000" transform="translate(1316,2103)"/>
<path d="M0 0 C4.32520129 0.4315166 6.37845486 3.21582149 9.0625 6.3125 C10.04274303 7.41296152 11.02321822 8.51321628 12.00390625 9.61328125 C12.50164551 10.17740723 12.99938477 10.7415332 13.51220703 11.32275391 C15.80888703 13.91188938 18.15510101 16.45460309 20.5 19 C21.41432072 19.99715912 22.32838231 20.99455592 23.2421875 21.9921875 C25.10032595 24.01936769 26.95984479 26.0452699 28.8203125 28.0703125 C33.04766751 32.67349765 37.26526083 37.28413776 41.4375 41.9375 C45.89397711 46.90238091 50.41948062 51.80134952 54.94921875 56.69921875 C61.15316761 63.4078422 67.33686793 70.1346369 73.4375 76.9375 C77.89397711 81.90238091 82.41948062 86.80134952 86.94921875 91.69921875 C93.15316761 98.4078422 99.33686793 105.1346369 105.4375 111.9375 C109.89397711 116.90238091 114.41948062 121.80134952 118.94921875 126.69921875 C125.15316761 133.4078422 131.33686793 140.1346369 137.4375 146.9375 C141.89397711 151.90238091 146.41948062 156.80134952 150.94921875 161.69921875 C157.15316761 168.4078422 163.33686793 175.1346369 169.4375 181.9375 C173.89397711 186.90238091 178.41948062 191.80134952 182.94921875 196.69921875 C189.15316761 203.4078422 195.33686793 210.1346369 201.4375 216.9375 C205.43517373 221.39286804 209.49200885 225.79083519 213.55834961 230.18334961 C216.56396073 233.43365351 219.54551924 236.70297075 222.5 240 C226.93370714 244.94590436 231.4394342 249.82286654 235.94921875 254.69921875 C242.15316761 261.4078422 248.33686793 268.1346369 254.4375 274.9375 C257.88578384 278.77917094 261.37091414 282.58435332 264.875 286.375 C265.37974854 286.92172363 265.88449707 287.46844727 266.40454102 288.03173828 C268.92975381 290.76567626 271.4603127 293.49434538 274 296.21484375 C274.95839932 297.24733459 275.91673525 298.27988426 276.875 299.3125 C277.71804688 300.21613281 278.56109375 301.11976563 279.4296875 302.05078125 C281.45968012 304.3800281 283.31959905 306.71023333 285.16064453 309.18432617 C285.69432648 309.90021408 286.22800842 310.61610199 286.77786255 311.35368347 C287.18116791 311.89696793 287.58447327 312.44025238 288 313 C275.37822032 313.23206541 262.75695096 313.40956679 250.13346958 313.51812172 C244.27123538 313.57023344 238.41046435 313.64087103 232.54907227 313.75439453 C226.88848009 313.86333833 221.22929175 313.92290143 215.56773186 313.94877243 C213.41185344 313.96719938 211.25604887 314.00318592 209.10077095 314.05730057 C192.20302361 314.46455634 192.20302361 314.46455634 186.70585632 310.81007385 C184.42893174 308.31073279 182.69743175 305.9131663 181 303 C180.19949219 302.03449219 179.39898437 301.06898438 178.57421875 300.07421875 C177.95160156 299.28660156 177.32898438 298.49898437 176.6875 297.6875 C172.79744069 292.87414563 168.67128166 288.3523855 164.44433594 283.83886719 C161.30684852 280.46971297 158.32478728 277.02724 155.4375 273.4375 C154.74529138 272.6130561 154.05308275 271.78861219 153.33989811 270.93918514 C151 268 151 268 149.09155178 264.89914036 C145.88506258 260.34917824 142.98788142 256.82014489 137.45913815 255.30255771 C129.52986671 254.11817425 121.50917655 254.3559786 113.51391602 254.43139648 C110.80260675 254.42007385 108.0915513 254.39091421 105.38037109 254.36280823 C98.7966602 254.30577276 92.21456719 254.31333512 85.63074369 254.3447349 C80.27675244 254.36916482 74.92321868 254.37038108 69.5691967 254.35527229 C68.8053767 254.35314477 68.0415567 254.35101725 67.25459064 254.34882526 C65.70258716 254.34441597 64.15058381 254.3399597 62.59858059 254.33545697 C48.06546906 254.29612188 33.53325648 254.33094168 19.00026243 254.39084549 C6.5490479 254.44035999 -5.90067679 254.42403822 -18.35180664 254.36010742 C-32.8335072 254.28576953 -47.31430314 254.25416606 -61.79618317 254.28880554 C-63.34258228 254.29237624 -64.88898154 254.29588582 -66.43538094 254.29933357 C-67.57646864 254.30189946 -67.57646864 254.30189946 -68.74060861 254.30451719 C-74.08338088 254.31356276 -79.42552797 254.29220158 -84.76818657 254.25872612 C-91.2867349 254.2186351 -97.80328302 254.22518153 -104.32166081 254.29032373 C-107.64457867 254.32236115 -110.96131356 254.3270983 -114.28458595 254.2888298 C-128.5223202 253.55831077 -128.5223202 253.55831077 -141.17387581 258.85786629 C-144.30480158 261.93703164 -146.6339795 265.3124355 -149 269 C-150.20255245 270.41882663 -151.42481383 271.82191403 -152.6875 273.1875 C-153.21988281 273.80367187 -153.75226563 274.41984375 -154.30078125 275.0546875 C-156.29406428 277.3366529 -158.33493027 279.57228574 -160.375 281.8125 C-163.42858867 285.18940982 -166.34429205 288.63217132 -169.1875 292.1875 C-169.90324188 293.04057236 -170.61898376 293.89364471 -171.35641479 294.77256775 C-173.25871521 297.0480581 -175.00985637 299.39355768 -176.74612427 301.79737854 C-181.18824474 307.58984888 -185.4944317 312.90980482 -192.95916748 314.31808472 C-198.7671484 314.91683508 -204.5437743 314.69174877 -210.3671875 314.46484375 C-212.49944538 314.43680984 -214.63180097 314.41548484 -216.76419067 314.40052795 C-222.33333774 314.34369019 -227.89646346 314.1967737 -233.46325684 314.02996826 C-239.16087388 313.8755461 -244.85948007 313.80781029 -250.55859375 313.73242188 C-261.70835183 313.57232877 -272.85367224 313.31689384 -284 313 C-282.21580086 309.19397814 -279.94681957 306.57881458 -277.0625 303.5 C-276.06368182 302.42719529 -275.06498732 301.35427542 -274.06640625 300.28125 C-273.30094482 299.46333984 -273.30094482 299.46333984 -272.52001953 298.62890625 C-270.16221639 296.1022017 -267.83177179 293.55070369 -265.5 291 C-264.58610018 290.00245511 -263.67203707 289.00505978 -262.7578125 288.0078125 C-262.30438477 287.51313477 -261.85095703 287.01845703 -261.38378906 286.50878906 C-259.98321151 284.98169498 -258.58157234 283.4555815 -257.1796875 281.9296875 C-252.95233249 277.32650235 -248.73473917 272.71586224 -244.5625 268.0625 C-240.56482627 263.60713196 -236.50799115 259.20916481 -232.44165039 254.81665039 C-229.43603927 251.56634649 -226.45448076 248.29702925 -223.5 245 C-219.52469946 240.56379505 -215.48792332 236.18745602 -211.44140625 231.81640625 C-208.43589278 228.56616903 -205.45440391 225.2969435 -202.5 222 C-198.52469946 217.56379505 -194.48792332 213.18745602 -190.44140625 208.81640625 C-187.43589278 205.56616903 -184.45440391 202.2969435 -181.5 199 C-177.52469946 194.56379505 -173.48792332 190.18745602 -169.44140625 185.81640625 C-166.43589278 182.56616903 -163.45440391 179.2969435 -160.5 176 C-156.52469946 171.56379505 -152.48792332 167.18745602 -148.44140625 162.81640625 C-145.43589278 159.56616903 -142.45440391 156.2969435 -139.5 153 C-135.52469946 148.56379505 -131.48792332 144.18745602 -127.44140625 139.81640625 C-124.43589278 136.56616903 -121.45440391 133.2969435 -118.5 130 C-114.52469946 125.56379505 -110.48792332 121.18745602 -106.44140625 116.81640625 C-103.43589278 113.56616903 -100.45440391 110.2969435 -97.5 107 C-93.06629286 102.05409564 -88.5605658 97.17713346 -84.05078125 92.30078125 C-77.84683239 85.5921578 -71.66313207 78.8653631 -65.5625 72.0625 C-61.56482627 67.60713196 -57.50799115 63.20916481 -53.44165039 58.81665039 C-50.43603927 55.56634649 -47.45448076 52.29702925 -44.5 49 C-40.52469946 44.56379505 -36.48792332 40.18745602 -32.44140625 35.81640625 C-28.70708363 31.77801665 -25.02152731 27.69857776 -21.3515625 23.6015625 C-18.55067564 20.50290693 -15.71420082 17.43850998 -12.875 14.375 C-8.50054545 9.65348699 -4.19178452 4.88549534 0 0 Z M1 100 C-6.01538818 107.61163274 -12.97078794 115.25281294 -19.671875 123.14453125 C-25.27008973 129.72718954 -30.95485613 136.19497941 -36.84375 142.51953125 C-40.05969439 145.97369374 -43.20517955 149.47435592 -46.29296875 153.04296875 C-48.33633431 155.3855915 -50.41680859 157.69273422 -52.5 160 C-55.76704335 163.62023723 -58.99520776 167.26983565 -62.1953125 170.94921875 C-64.22958141 173.26088797 -66.3022231 175.5353143 -68.375 177.8125 C-72.34968292 182.21449525 -76.13124485 186.74753993 -79.859375 191.359375 C-82.21231282 194.26190413 -84.60798873 197.12958647 -87 200 C-28.59 200 29.82 200 90 200 C86.2338136 194.97841813 83.15128911 191.00948266 78.77734375 186.76953125 C76.34460863 184.34748947 74.1242147 181.76618609 71.8828125 179.16796875 C69.7842468 176.75157049 67.645603 174.37470976 65.5 172 C62.23609152 168.38323655 59.01209051 164.73610392 55.8125 161.0625 C53.72788836 158.69035571 51.61571356 156.34443935 49.5 154 C46.23609152 150.38323655 43.01209051 146.73610392 39.8125 143.0625 C37.72788836 140.69035571 35.61571356 138.34443935 33.5 136 C30.23609152 132.38323655 27.01209051 128.73610392 23.8125 125.0625 C20.97400925 121.83249328 18.08531232 118.64802435 15.203125 115.45703125 C12.66813955 112.62989322 10.17735848 109.76707641 7.703125 106.88671875 C5.55250703 104.5042681 3.28264126 102.25546696 1 100 Z " fill="#000000" transform="translate(284,2094)"/>
<path d="M0 0 C27.39 0 54.78 0 83 0 C83 82.17 83 164.34 83 249 C186.29 249 289.58 249 396 249 C395.26562102 252.67189491 394.59684476 255.27809579 393.17407227 258.61914062 C392.80020889 259.50355835 392.42634552 260.38797607 392.04115295 261.29919434 C391.63698654 262.24202271 391.23282013 263.18485107 390.81640625 264.15625 C390.19305641 265.62608337 390.19305641 265.62608337 389.55711365 267.12561035 C388.23000816 270.25231252 386.89642644 273.37620255 385.5625 276.5 C384.23360622 279.62440366 382.90601997 282.74936043 381.57859802 285.87438965 C380.75283708 287.81702772 379.92594745 289.7591865 379.09779358 291.70080566 C378.53227028 293.02743225 378.53227028 293.02743225 377.95532227 294.38085938 C377.62524673 295.15409546 377.2951712 295.92733154 376.95509338 296.72399902 C375.94216749 299.13781567 374.97220189 301.56949528 374 304 C250.58 304 127.16 304 0 304 C0 203.68 0 103.36 0 0 Z " fill="#000000" transform="translate(748,2103)"/>
<path d="M0 0 C2.43987783 -0.00480003 4.8797501 -0.01443731 7.31959224 -0.02848083 C12.61400182 -0.04791693 17.90667565 -0.03337218 23.20081139 0.01153946 C31.07252656 0.0781311 38.94338735 0.08121486 46.81533286 0.07157758 C60.05894475 0.05714835 73.30195145 0.09378867 86.54538727 0.15976906 C99.65360767 0.22490805 112.76157589 0.26720472 125.86995697 0.27915001 C127.09355704 0.28028421 127.09355704 0.28028421 128.3418763 0.28144133 C132.48475502 0.28516311 136.62763396 0.28847829 140.77051315 0.29163697 C170.0969971 0.31472738 199.42315202 0.3887985 228.74945068 0.4929657 C257.23543552 0.59403115 285.72133023 0.67193276 314.2074585 0.71855164 C315.08587911 0.71999842 315.96429973 0.72144521 316.86933916 0.72293584 C325.69098561 0.73743985 334.51263276 0.75147376 343.33428051 0.76516329 C361.304198 0.79305991 379.27410962 0.82409368 397.24401855 0.85702515 C398.07020405 0.85853534 398.89638955 0.86004553 399.74761097 0.86160148 C454.89728794 0.96276945 510.04677824 1.13729122 565.19622803 1.32279968 C563.74833838 4.36590126 562.49609723 6.17472736 559.88372803 8.32279968 C556.10206965 11.52108064 552.44830958 14.82715174 548.82122803 18.19779968 C544.15481896 22.52353143 539.45340289 26.80546196 534.71575928 31.05326843 C529.84412558 35.44151522 525.02410478 39.88653777 520.19622803 44.32279968 C514.39786034 49.65083083 508.59681631 54.97574866 502.75872803 60.26029968 C501.61597412 61.29477234 501.61597412 61.29477234 500.45013428 62.35014343 C499.33445068 63.32660828 499.33445068 63.32660828 498.19622803 64.32279968 C497.52715229 65.01333427 496.85807655 65.70386886 496.16872579 66.41532874 C491.91275368 69.14641343 488.34117466 68.87091089 483.3823576 68.814991 C482.38213628 68.81960637 481.38191495 68.82422175 480.35138389 68.82897699 C476.97873757 68.83961746 473.6068455 68.82157641 470.23423767 68.80381775 C467.80041316 68.80556107 465.36658937 68.80906156 462.9327696 68.81417441 C457.63045263 68.82126922 452.32836411 68.81589039 447.02608299 68.79962158 C439.14181276 68.77549768 431.25765586 68.77427683 423.37335544 68.77778954 C410.11126241 68.7830475 396.84924903 68.7696706 383.58717918 68.74571991 C370.45366205 68.7220621 357.32017808 68.70665821 344.18663979 68.70230865 C343.37042523 68.7020337 342.55421068 68.70175874 341.71326235 68.70147545 C337.56822072 68.70012214 333.42317906 68.69891659 329.27813736 68.69776794 C299.90909616 68.68936345 270.54009832 68.6624061 241.17108154 68.6245575 C212.63722972 68.58782759 184.10338976 68.55948931 155.56951904 68.54252625 C154.69017774 68.54200014 153.81083644 68.54147404 152.90484843 68.54093199 C144.07424406 68.53565797 135.2436396 68.5305547 126.41303506 68.52557655 C108.4236359 68.51543135 90.43423751 68.50414634 72.44483948 68.49217224 C71.61769295 68.49162308 70.79054643 68.49107392 69.93833485 68.49050812 C14.69094773 68.45369756 -40.55641479 68.39023272 -95.80377197 68.32279968 C-94.85425921 67.20206408 -93.90288947 66.08290157 -92.95074463 64.96440125 C-92.42115143 64.34099854 -91.89155823 63.71759583 -91.34591675 63.07530212 C-89.42865843 60.89651844 -87.36442485 58.98055168 -85.17877197 57.07279968 C-81.35072233 53.69308018 -77.55977617 50.28192931 -73.80377197 46.82279968 C-69.3509519 42.73056047 -64.86716722 38.67456465 -60.36627197 34.63529968 C-57.49776788 32.04664965 -54.64900547 29.43694822 -51.80377197 26.82279968 C-42.74168351 18.4967184 -42.74168351 18.4967184 -38.45297599 14.79224187 C-35.74474552 12.38107855 -35.74474552 12.38107855 -33.52734208 9.52360123 C-24.05473283 -1.25389396 -13.56969259 -0.19832048 0 0 Z " fill="#006FBA" transform="translate(1536.8037719726563,3115.677200317383)"/>
<path d="M0 0 C27.39 0 54.78 0 83 0 C83 100.32 83 200.64 83 304 C55.61 304 28.22 304 0 304 C0 203.68 0 103.36 0 0 Z " fill="#000000" transform="translate(2015,2103)"/>
<path d="M0 0 C14.85 0 29.7 0 45 0 C48.27648709 7.86356901 51.40068418 15.64812153 54.23046875 23.6640625 C54.6183255 24.75398499 55.00618225 25.84390747 55.40579224 26.96685791 C56.23697737 29.30356218 57.0667344 31.64077486 57.89517212 33.97845459 C59.21328728 37.69776365 60.53497013 41.41579306 61.8581543 45.13330078 C62.08197061 45.76212347 62.30578691 46.39094616 62.53638554 47.03882408 C62.99110493 48.31632165 63.44584393 49.59381225 63.90060234 50.87129593 C64.58807501 52.80288075 65.27515423 54.73460518 65.96217346 56.66635132 C70.37868348 69.08135143 74.84160708 81.47949621 79.3125 93.875 C85.6505168 111.45410654 91.95760201 129.04396916 98.23168945 146.64599609 C98.52245865 147.46136841 98.81322784 148.27674072 99.11280823 149.11682129 C99.66747603 150.67284097 100.22156685 152.22906648 100.77500916 153.78552246 C102.58274866 158.86177316 104.44166114 163.91689571 106.35791016 168.95336914 C107 171 107 171 107 174 C107.66 174 108.32 174 109 174 C109.38103882 172.09613525 109.38103882 172.09613525 109.76977539 170.15380859 C110.96998258 164.77270164 112.76694796 159.70114829 114.68359375 154.5390625 C115.05044785 153.53727463 115.41730194 152.53548676 115.79527283 151.50334167 C117.00368098 148.2084473 118.22044822 144.91671042 119.4375 141.625 C120.29611437 139.2900969 121.15434337 136.95505206 122.01220703 134.61987305 C128.5188285 116.92920388 135.09617805 99.26467306 141.69287109 81.60742188 C148.96656406 62.13240876 156.15216988 42.62534536 163.32373047 23.11254883 C163.75551102 21.93842941 164.18729156 20.76431 164.63215637 19.55461121 C165.44098581 17.3549915 166.24919964 15.1551453 167.0566864 12.95503235 C167.4164003 11.97681015 167.7761142 10.99858795 168.14672852 9.99072266 C168.45804214 9.14305328 168.76935577 8.29538391 169.09010315 7.42202759 C170.02463748 4.93441822 171.01308179 2.46729553 172 0 C185.53 0 199.06 0 213 0 C213 68.64 213 137.28 213 208 C203.43 208 193.86 208 184 208 C183.67 152.56 183.34 97.12 183 40 C176.4 57.82 169.8 75.64 163 94 C158.67551589 105.57035654 154.34910078 117.13972417 150.0038681 128.70226288 C148.57940523 132.49342443 147.15621898 136.28506522 145.73291016 140.07666016 C144.03632043 144.59607884 142.33964263 149.11546429 140.64233398 153.63461304 C137.41670258 162.2232875 134.19572666 170.81368524 130.98046875 179.40625 C130.26343372 181.32177958 129.546393 183.23730704 128.8293457 185.15283203 C127.86574199 187.7271396 126.90244351 190.30155867 125.9402771 192.87640381 C125.10435987 195.11327042 124.26717798 197.34965955 123.4296875 199.5859375 C122.97835449 200.7929834 122.52702148 202.0000293 122.06201172 203.24365234 C121 206 121 206 120 208 C111.09 208 102.18 208 93 208 C88.50017071 197.87538409 88.50017071 197.87538409 86.79956055 193.19482422 C86.41274612 192.13514435 86.0259317 191.07546448 85.62739563 189.9836731 C85.21797226 188.85210785 84.80854889 187.7205426 84.38671875 186.5546875 C83.70757838 184.69014143 83.02843796 182.82559538 82.34929562 180.96105003 C81.625918 178.97312873 80.90412119 176.98464013 80.18280029 174.99597168 C78.66500165 170.81155619 77.14265609 166.62880383 75.61962891 162.44628906 C73.48658396 156.58747129 71.35527201 150.72802611 69.22509766 144.86816406 C64.84406764 132.81757423 60.45151703 120.77118918 56.05550671 108.72605705 C54.86910804 105.47518394 53.68317458 102.22414323 52.49862671 98.97259521 C45.08245472 78.61657004 37.54368894 58.30993175 30 38 C29.67 94.1 29.34 150.2 29 208 C19.43 208 9.86 208 0 208 C0 139.36 0 70.72 0 0 Z " fill="#000000" transform="translate(2394,2670)"/>
<path d="M0 0 C2.25760292 0.00254087 4.51521328 0.00110936 6.77281189 -0.00398254 C12.88218553 -0.00655886 18.98996035 0.04625525 25.09896326 0.10918307 C31.49036145 0.16554569 37.88179862 0.17073959 44.27340698 0.18141174 C54.99494229 0.20618301 65.71578064 0.26235047 76.43701172 0.34277344 C87.47571916 0.42549135 98.51426752 0.48914434 109.55322266 0.52734375 C110.57531478 0.53089052 110.57531478 0.53089052 111.61805524 0.53450894 C115.03670022 0.54625499 118.45534631 0.55762819 121.87399316 0.56881607 C150.19748468 0.6619893 178.52034178 0.82106799 206.84326172 1.02172852 C205.39537207 4.06483009 204.14313092 5.87365619 201.53076172 8.02172852 C197.74910334 11.22000947 194.09534327 14.52608058 190.46826172 17.89672852 C185.80185266 22.22246027 181.10043658 26.50439079 176.36279297 30.75219727 C171.49115927 35.14044406 166.67113847 39.5854666 161.84326172 44.02172852 C156.04489403 49.34975966 150.24385 54.67467749 144.40576172 59.95922852 C143.26300781 60.99370117 143.26300781 60.99370117 142.09716797 62.04907227 C141.35337891 62.70004883 140.60958984 63.35102539 139.84326172 64.02172852 C139.16348424 64.71249355 138.48370676 65.40325859 137.78332996 66.1149559 C133.66471313 68.78607274 130.35855924 68.56669283 125.54826355 68.50274658 C124.60885794 68.50616428 123.66945232 68.50958198 122.70157987 68.51310325 C119.55212681 68.51969464 116.403525 68.4976848 113.25415039 68.47583008 C110.99728414 68.47470188 108.74041642 68.47533493 106.48355103 68.4776001 C100.35374904 68.47874922 94.22425922 68.4552074 88.09452987 68.42730427 C81.68968898 68.40232391 75.28484119 68.39995126 68.87995911 68.39520264 C58.12881028 68.38417693 47.3777981 68.35918066 36.62670898 68.32348633 C25.55379814 68.28676179 14.48091844 68.25845222 3.40795898 68.24145508 C2.72525061 68.24040418 2.04254224 68.23935329 1.33914574 68.23827055 C-2.08585321 68.23305034 -5.51085238 68.22799553 -8.93585169 68.22302294 C-37.34289281 68.18156622 -65.7498094 68.11082482 -94.15673828 68.02172852 C-93.21809504 66.91132921 -92.27722716 65.80281024 -91.33544922 64.69506836 C-90.81174744 64.07755707 -90.28804565 63.46004578 -89.74847412 62.82382202 C-87.46613637 60.23985932 -84.96785095 57.95172992 -82.40673828 55.64672852 C-81.88724609 55.17686523 -81.36775391 54.70700195 -80.83251953 54.22290039 C-79.27770243 52.81824289 -77.7178312 51.41940404 -76.15673828 50.02172852 C-75.30595703 49.25602539 -74.45517578 48.49032227 -73.57861328 47.70141602 C-71.95985712 46.24453547 -70.34005931 44.78881149 -68.71923828 43.33422852 C-65.85073419 40.74557848 -63.00197178 38.13587706 -60.15673828 35.52172852 C-55.70338341 31.43006744 -51.22013974 27.37349905 -46.71923828 23.33422852 C-42.92579798 19.91087995 -39.16626828 16.45095499 -35.40673828 12.99047852 C-34.89252256 12.54375007 -34.37830685 12.09702162 -33.84850883 11.63675594 C-32.05655723 10.00575513 -32.05655723 10.00575513 -30.4308033 7.79898167 C-22.10628498 -1.74512798 -11.67037133 -0.18381108 0 0 Z " fill="#DB090A" transform="translate(1895.15673828125,3115.978271484375)"/>
<path d="M0 0 C46.2 0 92.4 0 140 0 C140 8.25 140 16.5 140 25 C102.38 25 64.76 25 26 25 C26 45.79 26 66.58 26 88 C60.98 88 95.96 88 132 88 C132 96.25 132 104.5 132 113 C97.02 113 62.04 113 26 113 C26 135.77 26 158.54 26 182 C64.94 182 103.88 182 144 182 C144 190.58 144 199.16 144 208 C96.48 208 48.96 208 0 208 C0 139.36 0 70.72 0 0 Z " fill="#000000" transform="translate(1870,2670)"/>
<path d="M0 0 C10.56 0 21.12 0 32 0 C35.48828125 8.26171875 35.48828125 8.26171875 36.69924927 11.12983704 C38.76799426 16.02954956 40.83681978 20.92922806 42.90576172 25.82885742 C47.23682231 36.08580581 51.56700931 46.34312058 55.89453125 56.6015625 C63.4079801 74.41031616 70.93289906 92.21396923 78.5 110 C86.58751945 129.00982974 94.6349285 148.03645732 102.65766907 167.07371521 C104.80457776 172.16760111 106.95533813 177.25982794 109.11062622 182.35017395 C110.35270061 185.28519259 111.59196094 188.22139299 112.83044434 191.15792847 C113.3965037 192.49839913 113.96378211 193.83835573 114.53234863 195.17776489 C115.29956382 196.98562015 116.06204055 198.79548418 116.82421875 200.60546875 C117.24791748 201.60731201 117.67161621 202.60915527 118.1081543 203.64135742 C119 206 119 206 119 208 C108.11 208 97.22 208 86 208 C83.32517076 202.65034152 80.90618218 197.49509501 78.79296875 191.94140625 C78.50448563 191.19398666 78.2160025 190.44656708 77.91877747 189.67649841 C77.00460988 187.30658555 76.09567266 184.93471589 75.1875 182.5625 C73.99605226 179.45864417 72.80179522 176.35588478 71.60546875 173.25390625 C71.31251923 172.49268463 71.0195697 171.73146301 70.71774292 170.94717407 C68.29289313 164.6786997 65.74550098 158.46448939 63.12333679 152.27601624 C61 147.21246224 61 147.21246224 61 145 C31.63 145 2.26 145 -28 145 C-28.99 148.3 -29.98 151.6 -31 155 C-31.70004978 157.00921334 -32.422069 159.01106093 -33.17651367 161.00048828 C-33.57670212 162.06083282 -33.97689056 163.12117737 -34.38920593 164.21365356 C-34.81119766 165.32135101 -35.23318939 166.42904846 -35.66796875 167.5703125 C-36.10764481 168.73255341 -36.54732086 169.89479431 -37.00032043 171.09225464 C-38.39284695 174.77105822 -39.79009422 178.44804744 -41.1875 182.125 C-42.13806893 184.63254785 -43.08763266 187.14047591 -44.03710938 189.6484375 C-46.35390977 195.76721862 -48.6770974 201.88351905 -51 208 C-61.23 208 -71.46 208 -82 208 C-80.87512134 201.25072803 -80.87512134 201.25072803 -79.51074219 197.88745117 C-79.20279221 197.11943176 -78.89484222 196.35141235 -78.57756042 195.56011963 C-78.23743423 194.72945984 -77.89730804 193.89880005 -77.546875 193.04296875 C-77.18406937 192.14229675 -76.82126373 191.24162476 -76.44746399 190.31365967 C-75.64719538 188.3286503 -74.84419327 186.34474137 -74.03884888 184.36178589 C-72.24282288 179.93838135 -70.46088062 175.50934407 -68.67811584 171.08058167 C-67.69707696 168.64351079 -66.71548723 166.20666903 -65.73313904 163.77012634 C-60.066266 149.70892922 -54.47495456 135.61778719 -48.88360596 121.52642822 C-47.05550231 116.91936283 -45.22585811 112.31291019 -43.39599609 107.70654297 C-37.54246725 92.97005951 -31.6942684 78.23147962 -25.8547821 63.48942566 C-23.50165771 57.54907469 -21.14677565 51.60942097 -18.79145145 45.6699419 C-16.86680475 40.81604255 -14.94454496 35.96120692 -13.02406979 31.10565567 C-11.83595092 28.10334343 -10.64560952 25.10191609 -9.4546566 22.10072708 C-8.90392181 20.71154458 -8.35411191 19.32199499 -7.80530739 17.9320488 C-7.05350704 16.02833277 -6.29839187 14.12596362 -5.54248047 12.22387695 C-5.12143036 11.16054642 -4.70038025 10.09721588 -4.26657104 9.00166321 C-2.97566601 5.94233055 -1.48498836 2.96997672 0 0 Z M15 26 C13.40829669 30.64900807 11.88742087 35.30828299 10.51416016 40.02685547 C6.23017316 54.71844157 1.00316073 68.90118257 -4.625 83.125 C-5.46695282 85.27051683 -6.30810097 87.4163496 -7.1484375 89.5625 C-8.73580042 93.61341391 -10.32566555 97.66332363 -11.91894531 101.71191406 C-12.27508911 102.61703735 -12.63123291 103.52216064 -12.99816895 104.45471191 C-13.6292154 106.05797128 -14.26059704 107.66109879 -14.89245605 109.26403809 C-15.62697544 111.13043615 -16.35671443 112.99871374 -17.0859375 114.8671875 C-17.65513916 116.31907471 -17.65513916 116.31907471 -18.23583984 117.80029297 C-19.10938488 119.92676488 -19.10938488 119.92676488 -19 122 C4.43 122 27.86 122 52 122 C43.02771728 98.34114587 43.02771728 98.34114587 33.84399414 74.76925659 C27.48321387 58.6423388 21.42849017 42.46842731 16 26 C15.67 26 15.34 26 15 26 Z " fill="#000000" transform="translate(2178,2670)"/>
<path d="M0 0 C48.18 0 96.36 0 146 0 C146 8.25 146 16.5 146 25 C107.39 25 68.78 25 29 25 C29 45.79 29 66.58 29 88 C62.33 88 95.66 88 130 88 C130 96.58 130 105.16 130 114 C96.67 114 63.34 114 29 114 C29 145.02 29 176.04 29 208 C19.43 208 9.86 208 0 208 C0 139.36 0 70.72 0 0 Z " fill="#000000" transform="translate(936,2670)"/>
<path d="M0 0 C55.11 0 110.22 0 167 0 C167 8.25 167 16.5 167 25 C144.23 25 121.46 25 98 25 C98 85.39 98 145.78 98 208 C88.43 208 78.86 208 69 208 C69 147.61 69 87.22 69 25 C46.23 25 23.46 25 0 25 C0 16.75 0 8.5 0 0 Z " fill="#000000" transform="translate(1599,2670)"/>
<path d="M0 0 C1.26913239 -0.00102219 2.53826477 -0.00204437 3.84585571 -0.00309753 C7.30465525 -0.00509552 10.76173482 0.03588198 14.22013664 0.08492017 C17.84218355 0.12885834 21.46427556 0.13280523 25.08654785 0.14109802 C31.93610737 0.16280294 38.78487921 0.22017403 45.63409281 0.29054445 C53.4357111 0.36894979 61.23736822 0.4073148 69.0392828 0.4424125 C85.07938305 0.51546263 101.11869237 0.63848386 117.15820312 0.79467773 C116.20869036 1.91541334 115.25732062 3.03457584 114.30517578 4.15307617 C113.77558258 4.77647888 113.24598938 5.39988159 112.7003479 6.04217529 C110.78308958 8.22095898 108.71885601 10.13692573 106.53320312 12.04467773 C102.70515348 15.42439724 98.91420733 18.8355481 95.15820312 22.29467773 C90.70538305 26.38691695 86.22159837 30.44291277 81.72070312 34.48217773 C78.85219903 37.07082777 76.00343662 39.68052919 73.15820312 42.29467773 C63.82440527 50.87040064 63.82440527 50.87040064 59.78387451 54.32426453 C57.09108026 56.70864061 57.09108026 56.70864061 55.09356689 59.60261536 C50.42598152 65.29349469 46.4545834 67.95364091 39.01989746 68.76034546 C31.84178452 69.17337274 24.67211434 69.07011598 17.48876476 68.91001105 C13.84952897 68.84069779 10.21016756 68.8347428 6.57037354 68.82173157 C-0.30440132 68.7876994 -7.17722518 68.69765641 -14.05114532 68.58688718 C-21.88412926 68.46343503 -29.71721219 68.40333138 -37.55092859 68.3482374 C-53.64902222 68.23361729 -69.74515965 68.04045546 -85.84179688 67.79467773 C-81.47672723 63.42088597 -77.02895178 59.15418148 -72.52929688 54.91967773 C-71.80806641 54.23776367 -71.08683594 53.55584961 -70.34375 52.85327148 C-66.20697291 48.9576518 -62.00652161 45.15811945 -57.71508789 41.43383789 C-54.91472935 38.98347854 -52.18995744 36.45512239 -49.46679688 33.91967773 C-44.80615977 29.59853493 -40.11070997 25.32097223 -35.37695312 21.07983398 C-31.52273146 17.60568965 -27.71049502 14.08630234 -23.89648438 10.56811523 C-23.15802151 9.91331098 -23.15802151 9.91331098 -22.4046402 9.24527836 C-20.78796418 7.78818609 -20.78796418 7.78818609 -19.24495697 6.02052212 C-13.34544462 -0.07015952 -8.19261109 -0.17372515 0 0 Z " fill="#FEFEFE" transform="translate(1755.841796875,3116.205322265625)"/>
<path d="M0 0 C25.41 0 50.82 0 77 0 C77 68.97 77 137.94 77 209 C67.43 209 57.86 209 48 209 C48 148.61 48 88.22 48 26 C32.16 26 16.32 26 0 26 C0 17.42 0 8.84 0 0 Z " fill="#000000" transform="translate(1174,2669)"/>
<path d="M0 0 C8.40777002 8.40777002 12.88818584 18.3583746 13.25 30.25 C12.93628689 40.5607042 9.65665139 49.96043648 2.75 57.75 C-6.27557798 65.64219759 -15.73949442 70.21236297 -27.92578125 69.95703125 C-38.50651447 69.01454577 -47.84368825 65.25680081 -55.3515625 57.609375 C-64.08861235 46.97619944 -66.20882103 36.22751249 -65.25 22.75 C-62.68931028 10.95619476 -55.25603215 2.12643582 -45.3828125 -4.50390625 C-30.49790803 -12.87280482 -13.38255546 -9.26484609 0 0 Z M-51.78515625 8.75390625 C-57.94352296 17.14570729 -60.19888957 25.45922582 -59.25 35.75 C-56.73275396 46.36558616 -51.63894936 53.68895923 -42.49609375 59.5234375 C-34.58479112 63.84369668 -25.22293384 64.98367074 -16.47265625 62.6015625 C-6.24267648 58.68216779 0.28582375 52.38675333 4.98828125 42.64453125 C8.28399994 34.44748732 7.76491755 25.34218829 4.5 17.25 C1.92333891 11.46046521 -1.21628156 7.10051678 -6.5625 3.625 C-7.28050781 3.14804688 -7.99851562 2.67109375 -8.73828125 2.1796875 C-23.4327589 -6.18450973 -40.2582534 -3.90032207 -51.78515625 8.75390625 Z " fill="#000000" transform="translate(1408.25,2666.25)"/>
<path d="M0 0 C25.34375 0 25.34375 0 31.4375 5 C33.83532776 9.60382929 33.8697166 13.9229364 33 19 C31.63072402 21.78726138 30.42406804 22.90648669 28 25 C25.828125 25.6484375 25.828125 25.6484375 24 26 C24.33322266 26.54003662 24.66644531 27.08007324 25.00976562 27.63647461 C26.50880487 30.0687444 28.00444375 32.50308718 29.5 34.9375 C30.02464844 35.78763672 30.54929687 36.63777344 31.08984375 37.51367188 C31.58613281 38.32255859 32.08242187 39.13144531 32.59375 39.96484375 C33.05458984 40.7137085 33.51542969 41.46257324 33.99023438 42.23413086 C35 44 35 44 35 45 C31.87710289 45.48758988 29.10777163 45.64796233 26 45 C23.44730303 42.77000666 22.0185386 40.09420573 20.4375 37.125 C20.00115234 36.37863281 19.56480469 35.63226562 19.11523438 34.86328125 C16 29.43485086 16 29.43485086 16 27 C13.36 27 10.72 27 8 27 C8 32.94 8 38.88 8 45 C5.36 45 2.72 45 0 45 C0 30.15 0 15.3 0 0 Z M8 6 C8 10.95 8 15.9 8 21 C10.0625 21.0825 12.125 21.165 14.25 21.25 C15.41015625 21.29640625 16.5703125 21.3428125 17.765625 21.390625 C21.06033222 21.26566825 21.06033222 21.26566825 23.39453125 19.20703125 C25.70235044 16.03448176 25.48647132 13.82227465 25 10 C23.16884793 7.38406847 22.09031634 7.03010545 19 6 C17.10529184 5.9314505 15.2083166 5.91519628 13.3125 5.9375 C11.559375 5.958125 9.80625 5.97875 8 6 Z " fill="#000000" transform="translate(1366,2674)"/>
</svg>
