<?xml version="1.0" encoding="UTF-8"?>
<svg version="1.1" xmlns="http://www.w3.org/2000/svg" width="922" height="814">
<path d="M0 0 C1.3419712 1.13594243 2.70986194 2.24134503 4.08886719 3.33203125 C11.57214709 9.27483725 18.33568039 15.75695777 25.06347656 22.53173828 C26.88762419 24.36661332 28.72223544 26.19053395 30.55810547 28.01367188 C36.70781756 34.15690026 42.53989117 40.35945432 47.92407227 47.19384766 C49.68205035 49.39032949 51.52499321 51.44642872 53.45263672 53.49414062 C67.97992699 69.67423638 79.88778981 88.71782329 90.76513672 107.49414062 C91.15137207 108.15687988 91.53760742 108.81961914 91.93554688 109.50244141 C103.78138032 129.94050444 113.71380921 151.29118833 121.76513672 173.49414062 C122.10496582 174.42452148 122.44479492 175.35490234 122.79492188 176.31347656 C134.60761721 209.0455458 142.25946014 243.78226775 144.76513672 278.49414062 C144.8215332 279.21520996 144.87792969 279.9362793 144.93603516 280.67919922 C150.30025396 351.22343768 136.97673683 421.6314284 106.76513672 485.49414062 C106.35956543 486.35587891 105.95399414 487.21761719 105.53613281 488.10546875 C92.21263723 516.18864905 75.48909788 542.47286148 55.76513672 566.49414062 C55.09901367 567.3067334 55.09901367 567.3067334 54.41943359 568.13574219 C44.28853455 580.43130096 33.41575321 591.93413775 22.20263672 603.24414062 C21.34041504 604.11941406 20.47819336 604.9946875 19.58984375 605.89648438 C14.37752808 611.115709 8.97976248 615.9132391 3.22290039 620.52441406 C1.27100869 622.08871944 -0.63839902 623.67534651 -2.52001953 625.32226562 C-11.32317103 632.99871278 -20.66433019 639.8087312 -30.23486328 646.49414062 C-30.87149902 646.94144531 -31.50813477 647.38875 -32.1640625 647.84960938 C-43.08487444 655.48038364 -54.57288999 662.06940885 -66.23486328 668.49414062 C-67.58064453 669.24099121 -67.58064453 669.24099121 -68.95361328 670.00292969 C-107.99282504 691.52778243 -150.73964764 705.37611923 -194.60986328 712.80664062 C-195.69016815 712.99184265 -195.69016815 712.99184265 -196.79229736 713.18078613 C-217.94259012 716.7632422 -238.98815546 717.90498632 -260.42236328 717.86914062 C-261.59885437 717.86892914 -262.77534546 717.86871765 -263.98748779 717.86849976 C-284.01668155 717.83275572 -303.46047501 716.61992716 -323.23486328 713.49414062 C-324.45093262 713.31222168 -325.66700195 713.13030273 -326.91992188 712.94287109 C-389.10100685 703.52608478 -453.04883482 677.98146466 -502.52490234 638.83935547 C-504.21257954 637.51167109 -505.91821243 636.21194187 -507.63330078 634.91992188 C-523.39953009 623.0210122 -537.94137119 609.85233472 -551.95755005 595.94668579 C-553.37926858 594.5368744 -554.80493116 593.13104384 -556.23071289 591.7253418 C-562.33793673 585.6257513 -567.8666179 579.24759259 -573.23486328 572.49414062 C-574.31991371 571.1774537 -575.40809322 569.8633342 -576.50048828 568.55273438 C-593.73485537 547.706764 -608.59277394 525.40510243 -621.23486328 501.49414062 C-621.7039209 500.61193848 -622.17297852 499.72973633 -622.65625 498.82080078 C-633.33722794 478.57518846 -641.49905205 457.43380985 -649.21850586 435.9128418 C-650.2649237 432.43710545 -650.2649237 432.43710545 -652.23486328 429.49414062 C-653.84134843 429.38598206 -655.45255551 429.34729517 -657.06263733 429.33592224 C-658.1073671 429.32613342 -659.15209686 429.3163446 -660.22848511 429.30625916 C-661.38438141 429.30050369 -662.54027771 429.29474823 -663.73120117 429.28881836 C-664.94078995 429.27891876 -666.15037872 429.26901917 -667.3966217 429.25881958 C-670.7228975 429.23256906 -674.04914849 429.21073306 -677.37546468 429.19081759 C-680.84819107 429.16899567 -684.32087316 429.14158849 -687.79356384 429.11476135 C-694.37379306 429.064783 -700.9540468 429.01986333 -707.53432411 428.97673899 C-715.02395587 428.92741046 -722.51354318 428.87247613 -730.00313199 428.8170594 C-745.41366804 428.70316044 -760.82424492 428.59633873 -776.23486328 428.49414062 C-775.41888415 424.91347206 -774.07865935 422.15167003 -772.27783203 418.93554688 C-771.36022095 417.28981689 -771.36022095 417.28981689 -770.42407227 415.61083984 C-769.75699424 414.42601763 -769.08975398 413.24128674 -768.42236328 412.05664062 C-767.73594111 410.83041192 -767.04982778 409.60401029 -766.36401367 408.37744141 C-761.86769848 400.34747272 -757.32032834 392.34667467 -752.73461914 384.36743164 C-749.3848235 378.53293757 -746.09281547 372.66821501 -742.8203125 366.79003906 C-725.88367172 336.37707677 -725.88367172 336.37707677 -720.23486328 334.49414062 C-718.53202906 334.40643886 -716.82593581 334.3764867 -715.12084961 334.38061523 C-714.0799971 334.38069077 -713.03914459 334.3807663 -711.9667511 334.38084412 C-710.84479843 334.3860054 -709.72284576 334.39116669 -708.56689453 334.39648438 C-707.41694504 334.39789932 -706.26699554 334.39931427 -705.0821991 334.40077209 C-701.4038942 334.40637634 -697.72564983 334.41892959 -694.04736328 334.43164062 C-691.5558277 334.43665508 -689.06429117 334.44121808 -686.57275391 334.4453125 C-680.46010299 334.45634715 -674.34748746 334.47308944 -668.23486328 334.49414062 C-668.24533691 333.38304932 -668.25581055 332.27195801 -668.26660156 331.12719727 C-668.62974742 288.77581564 -668.62974742 288.77581564 -666.23486328 268.49414062 C-666.10595703 267.37249512 -665.97705078 266.25084961 -665.84423828 265.09521484 C-660.46788774 219.55180094 -648.21204152 175.79452936 -628.23486328 134.49414062 C-627.43772822 132.80806563 -626.64084386 131.12187209 -625.84423828 129.43554688 C-613.1516893 102.95317119 -596.85798721 78.17473986 -578.23486328 55.49414062 C-577.79078125 54.95241211 -577.34669922 54.41068359 -576.88916016 53.85253906 C-561.84558948 35.59462271 -545.48779322 16.98799573 -526.77392578 2.47460938 C-524.36985304 0.59943263 -522.06812263 -1.36615728 -519.77026367 -3.36914062 C-511.35357697 -10.67346155 -502.36382063 -17.12713443 -493.23486328 -23.50585938 C-492.61417969 -23.9425293 -491.99349609 -24.37919922 -491.35400391 -24.82910156 C-414.76659397 -78.42328798 -319.47368117 -102.15773648 0 0 Z M-491.85986328 97.36914062 C-498.43673194 104.42092174 -504.45609916 111.78192085 -510.23486328 119.49414062 C-511.13455715 120.67386299 -512.03429729 121.85355007 -512.93408203 123.03320312 C-553.76247854 177.0744367 -575.52873429 243.4077972 -575.36523438 311.02758789 C-575.35979565 313.71506185 -575.36525227 316.40237434 -575.37158203 319.08984375 C-575.37092252 320.80143266 -575.36964399 322.51302147 -575.36767578 324.22460938 C-575.36970001 325.02658249 -575.37172424 325.8285556 -575.37380981 326.65483093 C-575.45212109 330.70537325 -575.45212109 330.70537325 -574.23486328 334.49414062 C-550.18300266 334.61085955 -526.13118438 334.69907275 -502.07909775 334.75320148 C-490.9116851 334.77900065 -479.74444826 334.81418398 -468.57714844 334.87133789 C-458.84553578 334.92112032 -449.11405042 334.95341917 -439.38231397 334.9645831 C-434.22772547 334.97111059 -429.07350118 334.98648766 -423.91902924 335.02279091 C-419.06973718 335.05666881 -414.2209602 335.0672102 -409.37156105 335.05967903 C-407.58972438 335.06105726 -405.80787091 335.07103861 -404.0261364 335.090168 C-401.59651944 335.11497892 -399.1688572 335.1090911 -396.73919678 335.09541321 C-396.03102271 335.10997742 -395.32284864 335.12454162 -394.59321475 335.13954717 C-390.91421904 335.08340719 -389.51449184 334.77371696 -386.87036514 332.13008404 C-385.14522672 329.34967311 -383.4819953 326.57021727 -381.91455078 323.69726562 C-381.30224609 322.58279053 -380.68994141 321.46831543 -380.05908203 320.32006836 C-379.74116699 319.73667694 -379.42325195 319.15328552 -379.09570312 318.55221558 C-377.42127968 315.48124709 -375.73015657 312.41950301 -374.03955078 309.35742188 C-373.70679138 308.75410538 -373.37403198 308.15078888 -373.03118896 307.52919006 C-370.50244396 302.95377601 -367.90718654 298.42441617 -365.23486328 293.93164062 C-361.11684338 287.00481791 -357.06995591 280.03936073 -353.04736328 273.05664062 C-352.40855225 271.94780518 -351.76974121 270.83896973 -351.11157227 269.6965332 C-349.80291371 267.42456336 -348.49440255 265.15250862 -347.18603516 262.88037109 C-345.29317191 259.5953344 -343.39743621 256.31197627 -341.50048828 253.02929688 C-334.68607003 241.2348349 -327.90499177 229.42222823 -321.15750122 217.5894165 C-316.56092053 209.53150759 -311.92153697 201.5000129 -307.23486328 193.49414062 C-302.22741225 184.93864651 -297.27331469 176.35389817 -292.35986328 167.74414062 C-291.86054291 166.86924988 -291.86054291 166.86924988 -291.35113525 165.97668457 C-288.97747943 161.81672834 -286.60593628 157.6555694 -284.23486328 153.49414062 C-281.52796952 148.7433187 -278.82015431 143.99302543 -276.10986328 139.24414062 C-275.61428925 138.37574554 -275.61428925 138.37574554 -275.10870361 137.48980713 C-269.7892981 128.17294576 -264.40914859 118.89283649 -258.98730469 109.63525391 C-255.15778362 103.09413262 -251.38946717 96.52258497 -247.68798828 89.90820312 C-246.23486328 87.49414062 -246.23486328 87.49414062 -244.23486328 85.49414062 C-242.34894371 85.24804497 -242.34894371 85.24804497 -240.00814819 85.25363159 C-239.12191269 85.25088226 -238.23567719 85.24813293 -237.32258606 85.24530029 C-236.34794907 85.25249084 -235.37331207 85.2596814 -234.36914062 85.26708984 C-233.34472366 85.26679779 -232.3203067 85.26650574 -231.2648468 85.26620483 C-227.86674635 85.26760214 -224.46886309 85.28318224 -221.07080078 85.29882812 C-218.7195345 85.30255683 -216.36826668 85.30540447 -214.01699829 85.30740356 C-207.81912977 85.31505124 -201.62135453 85.33470948 -195.42352295 85.35681152 C-189.10283673 85.37724554 -182.78213549 85.38640004 -176.46142578 85.39648438 C-164.05253056 85.41795429 -151.64370467 85.4521039 -139.23486328 85.49414062 C-140.60943841 89.766066 -142.18109417 93.44096243 -144.43798828 97.32617188 C-145.0813916 98.4415332 -145.72479492 99.55689453 -146.38769531 100.70605469 C-146.89988617 101.58541687 -146.89988617 101.58541687 -147.42242432 102.48254395 C-149.24808711 105.61701618 -151.05640457 108.7614944 -152.86767578 111.90429688 C-153.23670013 112.54337982 -153.60572449 113.18246277 -153.9859314 113.84091187 C-157.50466287 119.94160173 -160.93719584 126.08911217 -164.35986328 132.24414062 C-169.45604693 141.38911948 -174.68486406 150.44775422 -179.98535156 159.47558594 C-184.7649192 167.63673436 -189.3885293 175.87890924 -193.98706055 184.14306641 C-197.96301963 191.2704233 -202.03650326 198.33353155 -206.17236328 205.36914062 C-211.81251265 214.96751141 -217.24551858 224.66846232 -222.62255859 234.41625977 C-226.78579219 241.94281143 -231.05986353 249.39401138 -235.42236328 256.80664062 C-240.39570627 265.26049088 -245.17913926 273.79502137 -249.84155273 282.42382812 C-253.65799809 289.47541855 -257.6016907 296.44570974 -261.59912109 303.39599609 C-265.49088031 310.16946842 -269.30805015 316.98234654 -273.10986328 323.80664062 C-277.70631539 332.04940491 -282.39069713 340.23249806 -287.17236328 348.36914062 C-292.81537068 357.97269442 -298.25078993 367.67903343 -303.63134766 377.43164062 C-307.71086267 384.80598627 -311.89528221 392.10782344 -316.17236328 399.36914062 C-321.34903605 408.16126739 -326.33481066 417.04616742 -331.23486328 425.99414062 C-336.13491942 434.94212025 -341.1209126 443.82687861 -346.29736328 452.61914062 C-352.56893332 463.27215741 -358.58498641 474.05531533 -364.56689453 484.87304688 C-372.07410218 498.44612576 -379.73172542 511.93513216 -387.48486328 525.36914062 C-387.95118164 526.17867187 -388.4175 526.98820313 -388.89794922 527.82226562 C-389.32366211 528.55703125 -389.749375 529.29179688 -390.18798828 530.04882812 C-390.56084961 530.69319824 -390.93371094 531.33756836 -391.31787109 532.00146484 C-392.23486328 533.49414063 -392.23486328 533.49414063 -393.23486328 534.49414062 C-395.91188765 534.61926206 -398.56438601 534.68020632 -401.24291992 534.69946289 C-402.08187302 534.70936249 -402.92082611 534.71926208 -403.78520203 534.72946167 C-406.57177868 534.76117247 -409.35837241 534.78587177 -412.14501953 534.81054688 C-414.0717362 534.83110814 -415.99844828 534.85210438 -417.92515564 534.8735199 C-423.00668628 534.92882605 -428.0882582 534.97819751 -433.16986084 535.02636719 C-438.35107109 535.07652 -443.53222108 535.13223846 -448.71337891 535.1875 C-458.88715561 535.295186 -469.06098454 535.39660762 -479.23486328 535.49414062 C-477.33147982 539.66374874 -474.51308594 542.37230006 -471.17236328 545.43164062 C-470.24786377 546.28218018 -470.24786377 546.28218018 -469.3046875 547.14990234 C-452.97610861 561.9218261 -434.40241352 574.69093657 -415.23486328 585.49414062 C-414.47641113 585.92194824 -413.71795898 586.34975586 -412.93652344 586.79052734 C-371.6331893 609.81790315 -322.79847766 624.474223 -275.32080078 624.69726562 C-274.31602692 624.70427994 -273.31125305 624.71129425 -272.27603149 624.71852112 C-269.05392925 624.73591881 -265.83201076 624.74237278 -262.60986328 624.74414062 C-261.50916504 624.74481537 -260.4084668 624.74549011 -259.27441406 624.7461853 C-243.37538477 624.73067929 -227.91368813 624.35524005 -212.23486328 621.49414062 C-210.73221924 621.23673096 -210.73221924 621.23673096 -209.19921875 620.97412109 C-193.54836363 618.26434129 -178.34803768 614.36371249 -163.23486328 609.49414062 C-162.33767578 609.20732422 -161.44048828 608.92050781 -160.51611328 608.625 C-124.04810614 596.74608297 -90.77456642 576.74215091 -61.23486328 552.49414062 C-60.37441406 551.7903125 -60.37441406 551.7903125 -59.49658203 551.07226562 C-44.11657531 538.38631773 -29.39458683 524.3203457 -17.23486328 508.49414062 C-16.32727107 507.39458384 -15.41550374 506.29846527 -14.50048828 505.20507812 C29.15852112 452.66517681 52.38752765 382.47402173 52.07763672 314.49414062 C52.0758139 313.65241302 52.07399109 312.81068542 52.07211304 311.94345093 C52.01797037 296.96921219 51.06413178 282.30639761 48.76513672 267.49414062 C48.50772705 265.80901367 48.50772705 265.80901367 48.24511719 264.08984375 C42.3304113 218.0930987 42.3304113 218.0930987 20.76513672 178.49414062 C11.33432372 194.57832075 2.02923631 210.73063442 -7.20263672 226.9296875 C-10.20957072 232.20507358 -13.22345945 237.476485 -16.23687744 242.74816895 C-17.90316258 245.6633272 -19.56898956 248.57874725 -21.23486328 251.49414062 C-21.90152776 252.66080854 -22.56819442 253.82747521 -23.23486328 254.99414062 C-23.56486328 255.57164062 -23.89486328 256.14914062 -24.23486328 256.74414062 C-91.23486328 373.99414063 -91.23486328 373.99414063 -92.23484802 375.74411011 C-92.90156993 376.910876 -93.56828746 378.07764439 -94.23500061 379.24441528 C-95.90078612 382.15958441 -97.56664755 385.07471009 -99.23266602 387.98974609 C-102.24326642 393.25757257 -105.25330475 398.52571621 -108.26052856 403.79547119 C-115.67325991 416.78517418 -123.11097416 429.75986107 -130.59277344 442.70996094 C-135.13974348 450.58470821 -139.66296784 458.47283432 -144.17236328 466.36914062 C-144.50347107 466.9488562 -144.83457886 467.52857178 -145.17572021 468.12585449 C-148.55000854 474.03419253 -151.92160791 479.94405915 -155.29051208 485.85546875 C-162.19248091 497.96516552 -169.11314815 510.06387878 -176.10986328 522.11914062 C-176.69912598 523.13911133 -177.28838867 524.15908203 -177.89550781 525.20996094 C-178.43804199 526.14163086 -178.98057617 527.07330078 -179.53955078 528.03320312 C-180.01376465 528.84998535 -180.48797852 529.66676758 -180.9765625 530.50830078 C-182.23486328 532.49414062 -182.23486328 532.49414062 -184.23486328 534.49414062 C-186.12078285 534.75585365 -186.12078285 534.75585365 -188.46157837 534.77261353 C-189.79093163 534.78935875 -189.79093163 534.78935875 -191.1471405 534.80644226 C-192.1217775 534.80860245 -193.09641449 534.81076263 -194.10058594 534.81298828 C-195.63721138 534.82805672 -195.63721138 534.82805672 -197.20487976 534.84342957 C-200.6028892 534.8744076 -204.00081935 534.89133728 -207.39892578 534.90820312 C-209.75020029 534.92690301 -212.10146801 534.94647552 -214.45272827 534.96688843 C-220.65051275 535.01834021 -226.84831902 535.057896 -233.04620361 535.09503174 C-239.36695808 535.13498978 -245.6876209 535.18611942 -252.00830078 535.23632812 C-264.41709068 535.33324182 -276.82593219 535.41759701 -289.23486328 535.49414062 C-287.36146524 532.04665306 -285.48584138 528.60038106 -283.60986328 525.15429688 C-283.08779297 524.1935022 -282.56572266 523.23270752 -282.02783203 522.24279785 C-277.06786448 513.13612904 -271.93382605 504.13406224 -266.76123047 495.14697266 C-262.65268901 488.00631184 -258.56251475 480.85524564 -254.49023438 473.69384766 C-253.42023297 471.81895215 -252.33852673 469.95074455 -251.25439453 468.08398438 C-246.14207256 459.10901914 -242.75172151 450.88136748 -245.23486328 440.49414062 C-246.39539321 436.71874581 -247.9752082 434.34554818 -251.27682495 432.1139679 C-257.82301243 428.65769574 -263.14563793 427.75751936 -270.49267578 427.78710938 C-271.52174042 427.77198807 -272.55080505 427.75686676 -273.61105347 427.74128723 C-276.86088459 427.69869339 -280.10978183 427.68959942 -283.35986328 427.68164062 C-285.57863762 427.65847439 -287.79739011 427.63310467 -290.01611328 427.60546875 C-295.42237241 427.54289666 -300.82827079 427.50773807 -306.23486328 427.49414062 C-299.88024917 415.23113724 -293.46527668 403.01372943 -286.80810547 390.91186523 C-283.00620895 383.97395847 -279.35536593 376.96560601 -275.73486328 369.93164062 C-259.83783221 339.09710955 -259.83783221 339.09710955 -256.23486328 335.49414062 C-209.08565784 332.91789461 -209.08565784 332.91789461 -192.23486328 344.49414062 C-190.18561772 346.41286099 -188.80141023 348.1443202 -187.23486328 350.49414062 C-183.49391355 346.20025606 -180.95926897 341.54886849 -178.29736328 336.55664062 C-174.31226615 329.19849892 -170.20062468 321.93579938 -165.92236328 314.74414062 C-165.38095703 313.83398193 -164.83955078 312.92382324 -164.28173828 311.98608398 C-163.16627587 310.11143288 -162.05071491 308.2368404 -160.93505859 306.36230469 C-158.03062059 301.46262955 -155.16393831 296.54103356 -152.29736328 291.61914062 C-151.71623779 290.62172852 -151.1351123 289.62431641 -150.53637695 288.59667969 C-149.35772904 286.57334768 -148.17926257 284.54990997 -147.00097656 282.52636719 C-144.08158306 277.51408252 -141.1580516 272.50421275 -138.23486328 267.49414062 C-134.76896096 261.55335087 -131.30348242 255.61231636 -127.84033203 249.66992188 C-121.12408052 238.14754544 -114.39031958 226.63560588 -107.64242554 215.13174438 C-102.82904362 206.92551489 -98.02524501 198.71382737 -93.23486328 190.49414062 C-82.60147287 172.25388052 -71.93659354 154.03253716 -61.17236328 135.86914062 C-60.52871826 134.78004395 -59.88507324 133.69094727 -59.22192383 132.56884766 C-56.11089388 127.31143616 -52.98309826 122.0667183 -49.80296326 116.85089111 C-48.28460458 114.35804141 -46.77535402 111.85973887 -45.26687622 109.36090088 C-44.54282115 108.16732542 -43.81426419 106.97646823 -43.08102417 105.78851318 C-42.06778831 104.14642364 -41.07084067 102.494317 -40.07470703 100.84179688 C-39.50099365 99.90343994 -38.92728027 98.96508301 -38.33618164 97.99829102 C-37.05566222 95.61954485 -37.05566222 95.61954485 -37.39770508 93.34228516 C-38.87853951 90.07313477 -41.56793675 87.76978398 -44.10986328 85.30664062 C-44.99279053 84.43954468 -44.99279053 84.43954468 -45.89355469 83.55493164 C-51.07969997 78.52337742 -56.55705693 73.96068162 -62.23486328 69.49414062 C-63.40073147 68.540615 -64.56468868 67.5847496 -65.72705078 66.62695312 C-84.13421692 51.52953938 -104.62136846 38.60358661 -126.17138672 28.46826172 C-127.58004354 27.80326637 -128.98419612 27.12866638 -130.38427734 26.44580078 C-170.76770161 6.7661653 -215.93947346 -2.72201603 -260.73486328 -2.75585938 C-261.94923569 -2.75687149 -261.94923569 -2.75687149 -263.18814087 -2.75790405 C-349.82679091 -2.64416737 -432.51727542 34.60726795 -491.85986328 97.36914062 Z M-552.23486328 429.49414062 C-547.878901 440.87451381 -547.878901 440.87451381 -542.79736328 451.86914062 C-542.37688721 452.70364746 -541.95641113 453.5381543 -541.52319336 454.39794922 C-529.40638622 477.96965704 -514.14665049 499.17785289 -497.23486328 519.49414062 C-494.60173289 517.10996431 -492.9791887 514.57562436 -491.22314453 511.49804688 C-490.63855469 510.47904297 -490.05396484 509.46003906 -489.45166016 508.41015625 C-488.82324219 507.30349609 -488.19482422 506.19683594 -487.54736328 505.05664062 C-486.88048035 503.89037628 -486.21315407 502.72436535 -485.54541016 501.55859375 C-483.78827569 498.48833947 -482.03681312 495.41488773 -480.28668213 492.34063721 C-478.59927454 489.37834732 -476.90729509 486.41867395 -475.21533203 483.45898438 C-473.22508783 479.97703204 -471.23509365 476.4949397 -469.24707031 473.01171875 C-464.49199935 464.68189396 -459.71500196 456.36490481 -454.92236328 448.05664062 C-454.29394531 446.96673828 -453.66552734 445.87683594 -453.01806641 444.75390625 C-448.42377181 436.79620303 -448.42377181 436.79620303 -446.54663086 433.79467773 C-445.06975176 431.64594747 -445.06975176 431.64594747 -445.23486328 429.49414062 C-480.54486328 429.49414062 -515.85486328 429.49414062 -552.23486328 429.49414062 Z " fill="#EC1A3B" transform="translate(776.23486328125,95.505859375)"/>
<path d="" fill="#FEFEFE" transform="translate(0,0)"/>
<path d="" fill="#FEFEFE" transform="translate(0,0)"/>
<path d="" fill="#FEFEFE" transform="translate(0,0)"/>
</svg>
