<?xml version="1.0" encoding="UTF-8"?>
<svg version="1.1" xmlns="http://www.w3.org/2000/svg" width="1478" height="1229">
<path d="M0 0 C4.60904951 1.61939577 8.52036781 4.0293951 12.625 6.625 C13.33720703 7.07157959 14.04941406 7.51815918 14.78320312 7.97827148 C18.81065538 10.5290822 22.69366676 13.18750362 26.5 16.0625 C30.8007713 19.25256159 35.23302196 22.03185932 39.875 24.6875 C40.48666016 25.04400635 41.09832031 25.4005127 41.72851562 25.76782227 C53.75448701 32.49434478 66.13370252 35.29434687 79.52957153 37.82278442 C95.6819338 40.8901178 111.62071747 44.0525176 127 50 C127.83692383 50.3182373 128.67384766 50.63647461 129.53613281 50.96435547 C149.46700189 58.64362413 166.74288653 68.64162917 175.75 88.875 C182.03818975 104.88865363 181.80126102 122.87305921 175.1875 138.8125 C170.16407474 148.99007162 162.81589185 156.91405142 155 165 C154.42620605 165.59570801 153.85241211 166.19141602 153.26123047 166.80517578 C146.67756127 173.60739002 140.01368573 180.04473102 132.578125 185.92578125 C129.96137454 188.03107594 127.47932553 190.23508155 125 192.5 C121.58260628 195.61458668 118.0947765 198.5918662 114.5 201.5 C109.98116096 205.1584113 105.6361588 208.96267594 101.33984375 212.87890625 C99.21195185 214.80786335 97.05279141 216.69036353 94.875 218.5625 C91.26828566 221.68538681 87.95351286 225.04282614 84.6640625 228.49609375 C83 230 83 230 81 230 C80.61714844 230.87011719 80.61714844 230.87011719 80.2265625 231.7578125 C78.87775365 234.22346943 77.33642336 235.86669003 75.375 237.875 C60.91240627 253.85997202 53.99551921 275.5460226 54.7265625 296.875 C55.85255736 316.93818123 64.88651348 331.61597526 79.140625 345.01171875 C94.37679023 357.95082854 114.13093179 363.15591548 133.75390625 361.7265625 C178.06798308 357.64423842 220.49364494 331.95836192 254.60693359 304.89160156 C258.30789998 301.96616925 262.05979126 299.10854907 265.8125 296.25 C267.19407739 295.19540023 268.57558882 294.14071405 269.95703125 293.0859375 C270.62686035 292.57514648 271.29668945 292.06435547 271.98681641 291.53808594 C273.32937484 290.51236217 274.67019786 289.48436296 276.00927734 288.45410156 C296.07132609 273.02476682 318.13768272 257.28324951 343 251 C343.78455566 250.79713379 344.56911133 250.59426758 345.37744141 250.38525391 C358.73386462 247.0354033 372.1425629 245.31679698 385.8125 243.9375 C423.42352736 240.13613313 451.06615663 228.53431376 480 204 C480.55719727 203.52771973 481.11439453 203.05543945 481.68847656 202.56884766 C487.38841748 197.72965697 493.06233072 192.87871097 498.5625 187.8125 C523.56417533 165.56836239 554.92004181 154.7967053 588 153.5 C607.6634289 152.69884171 617.4133542 149.54474253 632 136 C633.5604517 134.60187717 635.12297686 133.20606531 636.6875 131.8125 C639.6650779 129.14712511 642.5933018 126.44244166 645.47265625 123.671875 C653.51730705 115.96030985 661.67122596 109.1055066 671 103 C672.423125 102.06607422 672.423125 102.06607422 673.875 101.11328125 C695.13279735 87.9747815 720.52454106 81.62600113 744.13497925 74.02236938 C772.76803988 64.78947403 799.38704922 53.78859701 824.32421875 36.79980469 C855.81014134 15.41475814 888.91807215 5.12090242 926.94921875 11.8984375 C955.75611549 17.74363905 981.79726988 34.41394408 1003.65087891 53.41943359 C1007.65304365 56.88885332 1011.74634704 60.19982105 1015.9375 63.4375 C1021.66770456 67.87201879 1027.15714155 72.53632872 1032.60961914 77.30664062 C1037.00411129 81.14889445 1041.46586302 84.88916718 1046 88.56640625 C1055.5762387 96.33463113 1065.08123322 104.18862963 1074.47705078 112.17407227 C1079.59536668 116.51880088 1084.79586791 120.7588632 1090 125 C1120.31646967 149.71426844 1120.31646967 149.71426844 1132.55078125 164.98046875 C1135.3052576 168.37633832 1138.1429887 171.69048628 1141 175 C1146.09920999 180.92194637 1151.07906766 186.92871984 1156 193 C1157.03080794 194.26077822 1158.06208999 195.52116891 1159.09375 196.78125 C1164.95808684 203.95415786 1170.73569672 211.17328081 1176.3515625 218.54296875 C1178.3049682 221.10371696 1180.28351425 223.64330824 1182.2734375 226.17578125 C1209.83042287 261.26754911 1235.76241728 296.07141856 1240.24121094 341.74707031 C1245.27798519 393.08374921 1258.75017271 442.03064903 1275.3125 490.75 C1275.83807495 492.29676926 1275.83807495 492.29676926 1276.37426758 493.87478638 C1277.38752376 496.85017268 1278.40552897 499.82388111 1279.42578125 502.796875 C1279.72656082 503.67808517 1280.02734039 504.55929535 1280.3372345 505.46720886 C1284.20374077 517.90920769 1284.20374077 517.90920769 1291.75 528.1875 C1293.06871094 529.43080078 1293.06871094 529.43080078 1294.4140625 530.69921875 C1296.62543164 532.666736 1298.86310543 534.59124707 1301.125 536.5 C1313.30971637 547.11015064 1320.7675706 562.31970655 1329 575.9765625 C1336.40831162 588.24209676 1344.13175408 599.53896192 1354 610 C1354.64710937 610.7115625 1355.29421875 611.423125 1355.9609375 612.15625 C1365.44350056 622.21937814 1378.17267841 627.85951402 1390.31689453 634.07958984 C1392 635 1392 635 1393 636 C1393.47410773 643.34866989 1393.47410773 643.34866989 1391.77734375 645.6796875 C1384.80582453 650.85853035 1373.21123422 649.34546721 1365.07617188 648.32763672 C1348.42655991 645.70019325 1332.46473008 637.12768291 1320 626 C1318.75863281 624.97132813 1318.75863281 624.97132813 1317.4921875 623.921875 C1307.48086459 615.41071974 1301.09338062 605.41654342 1294.94360352 594.00415039 C1283.94742043 573.87157252 1269.9591522 555.56034747 1248 547 C1248.97868179 548.54197452 1249.95799116 550.08355071 1250.9375 551.625 C1251.58203125 552.64207031 1252.2265625 553.65914062 1252.890625 554.70703125 C1254.25774551 556.84125826 1255.64219713 558.96452126 1257.046875 561.07421875 C1268.79679824 578.84919387 1278.4060393 597.48115681 1285.24609375 617.6796875 C1294.22976917 643.60489616 1320.06177636 657.23338549 1343.07666016 669.09082031 C1353.5649512 674.56718757 1353.5649512 674.56718757 1357 679 C1357.5625 682.0625 1357.5625 682.0625 1357 685 C1354.88082119 687.7356954 1353.7032642 688.87117062 1350.26123047 689.50170898 C1349.22369629 689.49985596 1348.18616211 689.49800293 1347.1171875 689.49609375 C1345.37937012 689.50056519 1345.37937012 689.50056519 1343.60644531 689.50512695 C1342.37506836 689.48281006 1341.14369141 689.46049316 1339.875 689.4375 C1338.61268555 689.42356201 1337.35037109 689.40962402 1336.04980469 689.39526367 C1326.12716034 689.20073929 1316.63723834 688.38152123 1307 686 C1306.34209473 685.83902832 1305.68418945 685.67805664 1305.00634766 685.51220703 C1281.90941746 679.60316197 1261.4500164 667.32961107 1245.140625 649.98046875 C1238.41932775 642.88107798 1231.53942748 636.3091719 1221.48046875 634.5625 C1217.82780474 635.2067494 1216.33772093 637.13270512 1213.75 639.75 C1199.53444321 653.46139518 1180.12809803 667.46832807 1159.5 667.1875 C1158.4584375 667.18105469 1157.416875 667.17460938 1156.34375 667.16796875 C1153 667 1153 667 1149.27880859 666.50439453 C1143.01812778 665.70543417 1136.7335838 665.73757309 1130.43164062 665.70483398 C1128.91168842 665.69341182 1127.39177314 665.67311833 1125.87207031 665.64331055 C1108.07188279 665.29592355 1092.56797589 669.43995584 1075.9680481 675.5736084 C1023.71629943 694.83904598 1023.71629943 694.83904598 1003.25 686.9375 C997.58199002 684.13524857 992.73359241 680.55480321 989.91796875 674.78125 C988.74994839 671.24239684 988.07605543 667.66240257 987.4375 664 C987.18639804 662.60413065 986.93510047 661.20829648 986.68359375 659.8125 C986.45800781 658.554375 986.23242188 657.29625 986 656 C985.71769531 654.73929688 985.71769531 654.73929688 985.4296875 653.453125 C984.86046649 650.2033905 984.75197064 647.04818209 984.6875 643.75 C984.65011719 642.50734375 984.61273437 641.2646875 984.57421875 639.984375 C985.10650942 630.18777932 992.14038943 622.18142258 997.66210938 614.578125 C998.23380859 613.77117188 998.80550781 612.96421875 999.39453125 612.1328125 C999.91893799 611.40980957 1000.44334473 610.68680664 1000.98364258 609.94189453 C1001.31904053 609.30106934 1001.65443848 608.66024414 1002 608 C1001.67 607.01 1001.34 606.02 1001 605 C997.85548824 604.85374364 995.49977985 604.79496211 992.5625 606 C989.22768306 607.30139198 986.55023167 607.26298012 983 607 C980 605 980 605 979.125 602.0625 C978.05303027 591.32047001 984.35866532 581.26226487 990.625 573.125 C997.11567168 565.25046813 1004.45405863 558.115471 1012.24609375 551.53515625 C1012.82488281 551.02855469 1013.40367188 550.52195312 1014 550 C1015.03060547 549.16855469 1015.03060547 549.16855469 1016.08203125 548.3203125 C1018.71049279 545.14046289 1019.34718715 541.74165502 1020.25 537.8125 C1023.75000354 524.13243846 1029.31724471 512.23009847 1038.3125 501.3203125 C1040.29408585 499.07380866 1040.29408585 499.07380866 1040 496 C1032.19400144 496.75106365 1024.53394865 498.08440805 1016.8125 499.4375 C1007.51497468 501.05694192 998.300214 502.35556219 988.875 503 C981.86496776 503.50476769 976.25559979 504.56591633 969.8671875 507.6953125 C966.40036507 509.2728584 962.86090332 510.2901564 959.1875 511.25 C957.98480469 511.56453125 956.78210937 511.8790625 955.54296875 512.203125 C949.16921128 513.63669338 943.00731349 514.20343604 936.5 514.25 C935.41912109 514.2809375 935.41912109 514.2809375 934.31640625 514.3125 C929.1416163 514.34993067 925.58526318 513.440077 921 511 C918.8750286 508.29549095 917.97994803 506.46952325 918.02734375 502.99609375 C918.96043895 497.13541716 921.81358948 492.86622487 925.06640625 488.00390625 C934.10853151 473.95664499 939.06156033 458.35996141 942 442 C942.18691406 440.98421875 942.37382813 439.9684375 942.56640625 438.921875 C943.19937413 433.196652 943.18435478 427.5057612 943.1875 421.75 C943.19974609 420.58597656 943.21199219 419.42195313 943.22460938 418.22265625 C943.23686496 410.92649819 942.5960791 404.1222204 941 397 C940.01 397.33 939.02 397.66 938 398 C937.05744043 400.40069554 937.05744043 400.40069554 936.484375 403.34375 C936.1121582 404.97957031 936.1121582 404.97957031 935.73242188 406.6484375 C935.36987305 408.30746094 935.36987305 408.30746094 935 410 C934.55129959 411.90729632 934.09833939 413.81359676 933.640625 415.71875 C933.41608643 416.65984619 933.19154785 417.60094238 932.96020508 418.57055664 C917.73774757 481.35992329 917.73774757 481.35992329 896 495 C886.2532119 499.83064498 875.2629268 501.63479843 864.68237305 503.76977539 C854.89084037 505.6783354 854.89084037 505.6783354 846 510 C843.38350547 514.31409172 843.45788013 518.0862507 844 523 C846.09239374 530.54010574 849.49070722 536.93144663 853.75 543.4375 C864.34057036 560.09682415 874.10136659 577.29135945 883.3125 594.75 C883.75029785 595.57628906 884.1880957 596.40257812 884.63916016 597.25390625 C889.00828678 605.66103304 891.54469055 612.36616841 891.4375 621.9375 C891.43210205 622.87972412 891.4267041 623.82194824 891.42114258 624.79272461 C891.09243711 640.65503686 888.02183647 656.67436556 884 672 C887.15571142 672.33046595 887.15571142 672.33046595 889.390625 669.89453125 C892.04544975 666.94958343 894.45906891 663.91705723 896.75 660.6875 C897.17684082 660.08719971 897.60368164 659.48689941 898.04345703 658.8684082 C902.53554691 652.42190297 906.41654467 645.66368788 910.08837891 638.72265625 C910.85972422 637.26507388 911.65217997 635.81869288 912.44921875 634.375 C915.79085728 627.80897342 916.30128957 621.2987012 914.15673828 614.21435547 C910.45273559 604.63243265 905.95526225 595.52994719 901.3125 586.375 C900.49892491 584.75977542 899.68569498 583.14437694 898.87280273 581.52880859 C894.83795621 573.52473516 890.7631533 565.54358447 886.5625 557.625 C885.44698219 555.51691385 884.33153411 553.408792 883.21679688 551.30029297 C882.31624555 549.59784622 881.41357747 547.8965188 880.50976562 546.19580078 C878.92720632 543.20149346 877.36798825 540.19594393 875.8125 537.1875 C875.31758057 536.2608252 874.82266113 535.33415039 874.31274414 534.37939453 C872.33911457 530.52312209 871.00099307 527.88780187 870.99609375 523.5078125 C872.25443406 520.36440985 874.06230705 519.31025051 877.015625 517.76171875 C883.6741452 515.20579072 890.0884218 515.91090283 897 517 C897.71510742 517.08958984 898.43021484 517.17917969 899.16699219 517.27148438 C905.1884947 518.17068156 910.48968285 519.76168313 915 524 C919.53405179 531.18109218 922.10754856 539.42487957 924.91757202 547.39736938 C927.03675822 553.32707377 929.73063992 558.77057108 932.8125 564.25 C933.29299805 565.11061035 933.77349609 565.9712207 934.26855469 566.85791016 C937.10022545 571.84620656 940.05118501 576.76005016 943.01953125 581.66796875 C943.70104248 582.79493164 944.38255371 583.92189453 945.0847168 585.08300781 C946.4131044 587.26705061 947.7513352 589.44514665 949.10083008 591.61621094 C956.39832244 603.50470014 957.5249516 614.58783049 955.5234375 628.25390625 C951.23891721 644.50478878 940.93861447 659.80781174 932.1875 673.9375 C931.57801514 674.92532471 930.96853027 675.91314941 930.34057617 676.9309082 C923.35883409 687.98620237 916.93838546 695.64293496 904 699.25 C897.79769691 700.51444286 891.55588215 701.15466054 885.23046875 700.82421875 C871.15307404 700.28089545 860.87137442 704.78378916 848.6302948 711.12239075 C847.69374809 711.60708076 847.69374809 711.60708076 846.73828125 712.1015625 C846.10791458 712.42843552 845.47754791 712.75530853 844.82807922 713.09208679 C837.70042737 716.74251046 830.33457931 719.72742806 822.875 722.625 C821.85573929 723.0218248 821.85573929 723.0218248 820.81588745 723.42666626 C804.99507638 729.55519654 788.97019098 735.10686516 772.84954834 740.39007568 C771.1464275 740.9517127 769.44727553 741.52534738 767.74853516 742.10009766 C750.63253225 747.8627432 733.12212403 750.25805761 716 743 C700.69754687 735.35890751 691.60905646 722.2429949 683.61328125 707.6875 C683.01978882 706.60976318 683.01978882 706.60976318 682.41430664 705.51025391 C681.65797249 704.12319196 680.91296062 702.72987414 680.18139648 701.32958984 C677.45308936 696.26721373 674.64961498 692.88320499 669 691 C667.30796042 690.95235183 665.61397163 690.96223516 663.921875 691.0078125 C662.92542969 691.02457031 661.92898438 691.04132812 660.90234375 691.05859375 C658.81621894 691.10253938 656.7302462 691.15450231 654.64453125 691.21484375 C643.80850612 691.36824951 643.80850612 691.36824951 639 688 C635.91219824 683.94273551 633.40161527 679.60253145 630.875 675.1875 C630.13521138 673.92678849 629.39365648 672.66711187 628.65039062 671.40844727 C627.14579866 668.85422679 625.65201306 666.29416202 624.16699219 663.72851562 C622.1536313 660.25441958 620.10234336 656.8041024 618.0390625 653.359375 C613.28416631 645.40669312 613.28416631 645.40669312 611.34375 642.12109375 C610.91255859 641.3933374 610.48136719 640.66558105 610.03710938 639.91577148 C607.85343457 635.88203886 607.68795699 632.52462358 608 628 C608.9375 625.25 608.9375 625.25 611 623 C617.89964204 619.83963314 625.66017498 618.74470492 633.0625 617.375 C634.19494141 617.1584375 635.32738281 616.941875 636.49414062 616.71875 C672.96124687 609.83736245 672.96124687 609.83736245 687 618 C687.74636719 618.42796875 688.49273438 618.8559375 689.26171875 619.296875 C704.61895801 629.6958433 714.57500115 651.27021377 722.125 667.625 C727.05518566 677.70160752 734.49941691 685.03097226 745 689 C755.46005769 692.4866859 766.91064793 689.34698526 777 686 C777.64727051 685.78569336 778.29454102 685.57138672 778.96142578 685.35058594 C794.41526525 680.11419249 812.15115983 673.72939368 821.5625 659.5625 C825.623609 649.49801247 823.55029971 639.93497496 820 630 C816.07133275 621.05621924 810.86614957 612.67667118 803.79296875 605.87890625 C802 604 802 604 802 602 C801.43337646 601.75660889 800.86675293 601.51321777 800.28295898 601.26245117 C797.57998448 599.76773605 795.69409023 597.94578078 793.47265625 595.80078125 C788.21799355 590.98857596 782.65981535 587.60225906 776.4375 584.1875 C763.08637956 576.62104209 750.31910934 568.57485452 739.12109375 558 C737.14291109 556.13475227 735.09760486 554.41542796 733 552.6875 C718.87145356 540.24296212 712.22126336 525.45790504 707.48364258 507.55541992 C707.21704834 506.59224854 706.9504541 505.62907715 706.67578125 504.63671875 C706.44802002 503.76748779 706.22025879 502.89825684 705.9855957 502.00268555 C705.1828564 499.79452854 705.1828564 499.79452854 702.89526367 499.21020508 C702.26982666 499.1408374 701.64438965 499.07146973 701 499 C698.54333762 501.14957958 697.19085994 503.07855323 696.5234375 506.30078125 C696.09578482 514.25737198 698.31070073 521.26888246 700.86474609 528.70532227 C702.67437384 534.12185492 703.88977288 539.26771009 703 545 C699.28609453 550.39115309 692.94417539 553.08432124 686.67700195 554.53930664 C660.13175917 559.10755772 630.44230242 552.62481719 604.51220703 547.28125 C575.70799214 541.38009422 549.73018993 542.13597239 520.90301514 546.4234314 C509.08673251 548.17496961 497.52413639 549.599597 485.5625 549.625 C484.4580957 549.6353125 483.35369141 549.645625 482.21582031 549.65625 C471.3694847 549.46791053 460.25486949 546.95042894 452.234375 539.3203125 C447.49817235 534.36520972 444.90377533 529.55290909 443 523 C442.62746094 521.73929688 442.25492188 520.47859375 441.87109375 519.1796875 C435.41029757 494.35560823 438.21016321 466.81276653 442.54248047 441.87011719 C443.22353983 437.59768716 443.64033179 433.31001399 444 429 C441.21885944 426.66608797 441.21885944 426.66608797 438.3125 427.375 C437.549375 427.58125 436.78625 427.7875 436 428 C431.59909957 443.4582745 429.46037518 459.2750903 427.078125 475.14257812 C421.06341684 514.99001971 411.29779049 550.12479889 383 580 C382.195625 580.85722656 381.39125 581.71445313 380.5625 582.59765625 C348.72955212 615.57460069 298.7105599 620.99604274 255.3125 623 C212.72461888 624.96958463 169.17778114 632.97537893 137 663 C136.08347656 663.84691406 135.16695312 664.69382812 134.22265625 665.56640625 C127.0211089 672.48638935 120.04082196 680.30738001 117 690 C117.19513752 692.83073081 117.19513752 692.83073081 118 695 C121.61814972 693.02307283 124.03010099 691.06432522 126.625 687.875 C131.23316009 682.5419608 136.44211083 678.30698959 142 674 C142.91523438 673.26910156 143.83046875 672.53820313 144.7734375 671.78515625 C181.02630456 643.52778453 224.48955592 636.27550156 269.28701782 635.67007446 C316.84930585 634.96147846 363.23872136 628.40469602 399.0625 594.375 C409.87443477 583.17248631 418.55086724 570.01623155 427 557 C428.2055443 555.18564374 429.41340991 553.37282459 430.625 551.5625 C431.09164063 550.86253906 431.55828125 550.16257812 432.0390625 549.44140625 C432.51472656 548.72791016 432.51472656 548.72791016 433 548 C436.0191166 549.41409216 438.63531237 551.07715615 441.328125 553.0390625 C442.12734375 553.61914062 442.9265625 554.19921875 443.75 554.796875 C444.9875 555.70179688 444.9875 555.70179688 446.25 556.625 C447.09046875 557.23601563 447.9309375 557.84703125 448.796875 558.4765625 C450.86651376 559.98175433 452.93412994 561.48964202 455 563 C446.82981142 589.10357148 433.61792955 616.53344337 414 636 C413.43224854 636.58289795 412.86449707 637.1657959 412.27954102 637.76635742 C405.38770117 644.41279051 397.38223343 648.38536536 388.9375 652.6875 C386.65134842 653.86822513 384.36727062 655.05289376 382.08334351 656.23791504 C380.55974468 657.02810519 379.03535287 657.81676829 377.51016235 658.60388184 C371.85951721 661.52680164 366.30120228 664.58608845 360.75195312 667.69750977 C336.95141283 680.99724239 316.12300894 681.51900187 289.85546875 676.53027344 C282.59908872 675.18273091 275.30076418 674.07709975 268 673 C266.66582031 672.79890625 266.66582031 672.79890625 265.3046875 672.59375 C244.40125417 669.97171655 223.34788045 671.36558663 206.28417969 684.59423828 C201.66546893 688.30272119 197.39988176 692.34241747 193.125 696.4375 C178.71686085 710.16396375 162.06802368 722.43235135 142 726 C140.58654297 726.26296875 140.58654297 726.26296875 139.14453125 726.53125 C130.31133056 727.69557557 122.3712478 725.95174787 113.796875 724.0078125 C105.75886545 722.23400256 98.44223434 720.70839797 91 725 C83.69813252 730.90168859 79.47625051 739.03478832 74.95898438 747.08642578 C70.54135705 754.94536604 65.66356059 761.86250998 59 768 C58.29875 768.66 57.5975 769.32 56.875 770 C42.96094884 779.67933994 27.21780861 780.08377297 10.97900391 777.36865234 C6.95195071 776.6436224 2.94463751 775.82695438 -1.0625 775 C-3.11083485 774.58718361 -5.1596943 774.17704774 -7.20860291 773.76708984 C-9.0436452 773.39840843 -10.87745929 773.02362882 -12.71118164 772.6484375 C-15.80004092 772.03942479 -18.89187534 771.50027327 -22 771 C-21.46870979 763.3632345 -20.06614425 756.11625462 -18.25 748.6875 C-17.98123047 747.58390137 -17.71246094 746.48030273 -17.43554688 745.34326172 C-14.11423326 732.0442666 -9.92947533 716.10529757 1 707 C4.26953125 706.03125 4.26953125 706.03125 7.8125 705.5 C20.23914019 703.13363668 28.57292124 695.5875039 35.68359375 685.19140625 C36.9879823 683.23219842 38.26586163 681.26213277 39.51318359 679.26611328 C44.46890743 671.38815666 50.43566519 667.34378181 58.4375 662.8125 C80.70249761 649.89197421 95.23040668 637.97198356 105.25 613.75 C106.21743972 611.44661114 107.18488776 609.14322578 108.15234375 606.83984375 C109.9535801 602.52646854 111.73556314 598.20585401 113.50390625 593.87890625 C114.27338053 592.02341387 115.0429087 590.16794384 115.8125 588.3125 C116.14862305 587.47106445 116.48474609 586.62962891 116.83105469 585.76269531 C119.28530016 579.87968934 122.30314244 574.38248646 127.79223633 570.8449707 C130.67057033 569.74335465 133.23551855 569.60430292 136.3125 569.4375 C137.55386719 569.36273437 138.79523438 569.28796875 140.07421875 569.2109375 C141.36972656 569.14132812 142.66523438 569.07171875 144 569 C156.42055744 568.31629959 168.35721651 567.45700683 180.0625 563 C180.85906006 562.7002124 181.65562012 562.4004248 182.47631836 562.09155273 C196.32349779 556.69998272 213.308075 549.68338301 222 537 C224.71069568 529.85362049 222.35278143 523.53164488 219.5 516.9375 C218.76404427 515.16655985 218.03107801 513.39437502 217.30078125 511.62109375 C216.92131348 510.70312012 216.5418457 509.78514648 216.15087891 508.83935547 C204.41517214 479.88596775 202.00523961 453.30394594 200.69702148 422.34716797 C200.65786621 421.44755341 200.61871094 420.54793884 200.57836914 419.62106323 C200.50474643 417.92126918 200.43416631 416.22133956 200.3671875 414.52127075 C200.18178782 410.27124981 199.80927972 406.18862039 199 402 C190.62142919 402.83476536 182.54044927 404.84151176 174.34960938 406.74023438 C134.13491344 415.90163769 94.7332839 412.31426608 59 391 C51.35071022 386.0704577 44.61415459 380.22709562 38 374 C37.07767578 373.17435547 37.07767578 373.17435547 36.13671875 372.33203125 C23.18126687 360.27005881 14.0408337 342.06129786 10 325 C9.70222656 323.74960937 9.40445313 322.49921875 9.09765625 321.2109375 C2.8883319 291.95132175 6.04258703 258.80565474 21.890625 233 C25.73745761 227.52894918 30.12027443 222.54393195 34.58789062 217.57519531 C35.7869057 216.23770477 36.96600161 214.8823996 38.140625 213.5234375 C43.20693318 207.7191238 48.62855128 202.26958128 54.0625 196.8125 C54.81869629 196.05163086 55.57489258 195.29076172 56.35400391 194.50683594 C61.07437568 189.79981886 65.92951846 185.32611828 71 181 C72.12893564 180.02607573 73.25784312 179.05211883 74.38671875 178.078125 C75.48647049 177.1348233 76.58674089 176.19212599 77.6875 175.25 C78.28272461 174.74049805 78.87794922 174.23099609 79.49121094 173.70605469 C81.32659186 172.13633376 83.16305738 170.56789298 85 169 C85.57508301 168.50886719 86.15016602 168.01773438 86.74267578 167.51171875 C92.16305245 162.88749399 97.59411223 158.29037318 103.1875 153.875 C112.19634185 147.38569677 112.19634185 147.38569677 119 139 C119.12844284 134.33018535 118.68008977 130.92012145 115.875 127.125 C108.03087841 121.327171 99.80027176 120.89511388 90.37890625 120.859375 C61.32477899 120.57840353 41.09996733 115.88147655 20 95 C19.27296875 94.33355469 18.5459375 93.66710937 17.796875 92.98046875 C2.76439324 78.92450648 -8.62262072 56.96848442 -9.46801758 36.3527832 C-9.64714414 23.52540701 -7.30584741 10.77911912 0 0 Z M915 173 C912.81090552 176.2106719 912.02738355 178.30171936 911.875 182.1875 C913.81276726 188.75437792 917.95389194 194.0302708 921.80859375 199.625 C934.24783103 218.24229945 938.10448984 240.82306103 942.67749023 262.35913086 C942.82405563 263.04599472 942.97062103 263.73285858 943.12162781 264.4405365 C943.52473091 266.3335112 943.92409552 268.22728086 944.32324219 270.12109375 C944.8648523 272.92192858 944.8648523 272.92192858 946 275 C947.9694273 274.8341722 947.9694273 274.8341722 950 274 C960.1488652 254.6359652 957.83805456 223.67622469 951.93359375 203.32421875 C947.53603607 191.2055367 940.8799386 178.30689743 929.9375 170.9375 C924.27861019 169.13147134 919.67004976 169.10829187 915 173 Z M1141.1796875 377.76953125 C1137.10527878 382.67312013 1134.69178969 388.4645799 1132.15795898 394.2590332 C1131.31876011 396.17322087 1130.45692206 398.07592857 1129.59179688 399.97851562 C1123.90898978 412.66446207 1119.51942658 424.58497827 1124.1484375 438.21484375 C1124.86561292 440.18894614 1124.86561292 440.18894614 1127 441 C1130.30410119 437.90240513 1133.09789136 434.64464597 1135.875 431.0625 C1140.97011785 424.61188853 1146.21999272 418.64813658 1154.6875 417.5 C1160.14303984 417.62213895 1163.8473995 420.74949045 1168 424 C1168.82371094 424.62261719 1169.64742187 425.24523437 1170.49609375 425.88671875 C1186.6626922 439.53122696 1191.99877579 456.12663525 1193.72851562 476.33789062 C1193.83744141 477.41103516 1193.94636719 478.48417969 1194.05859375 479.58984375 C1194.14423584 480.55784912 1194.22987793 481.52585449 1194.31811523 482.52319336 C1194.81259571 485.12282649 1194.81259571 485.12282649 1196.87524414 486.85766602 C1199.03384151 488.27567423 1199.03384151 488.27567423 1201.9375 487.6875 C1207.18768528 484.79454076 1209.26174677 480.24376249 1211.09375 474.67578125 C1215.76549488 455.72702294 1211.02162177 438.14966587 1201.59375 421.5546875 C1198.00828435 415.80739697 1193.75438744 410.7983168 1189.125 405.875 C1185.63753673 402.03002116 1183.03742027 397.96236051 1180.4375 393.5 C1172.38075426 379.38628025 1172.38075426 379.38628025 1158.7734375 371.33984375 C1151.32843558 370.0222575 1146.43861064 372.60529786 1141.1796875 377.76953125 Z M1125 586 C1124.10474609 586.75216797 1124.10474609 586.75216797 1123.19140625 587.51953125 C1117.087924 593.10646043 1110.74102687 601.54357571 1110 610 C1112.36162203 613.14882938 1114.19537179 614.33386981 1118 615 C1128.54593479 615.62387783 1141.6885098 616.29583603 1150.625 609.8125 C1156.87629246 602.40965367 1157.6873539 592.39383666 1157 583 C1156.05445883 579.24080269 1156.05445883 579.24080269 1153.18359375 576.89453125 C1142.77014507 572.62855675 1132.70035505 579.46971943 1125 586 Z " fill="#8B8F91" transform="translate(85,450)"/>
<path d="M0 0 C38.0644866 -0.04589186 76.128969 -0.08107706 114.19347772 -0.10213066 C118.69897217 -0.10463173 123.20446657 -0.10722041 127.70996094 -0.10986328 C128.60683115 -0.1103879 129.50370136 -0.11091252 130.42774945 -0.11145304 C144.9030302 -0.12012866 159.37829487 -0.13588277 173.85356611 -0.15430559 C188.73368429 -0.17308411 203.61379412 -0.18413344 218.49392366 -0.18817699 C227.65757824 -0.19090565 236.82118737 -0.19948757 245.98482794 -0.21583293 C252.28963817 -0.22649826 258.59442531 -0.22957932 264.89924389 -0.22700275 C268.52342505 -0.22573612 272.14752745 -0.22751772 275.77169418 -0.23841095 C297.00687584 -0.2990229 318.37261432 -0.06517321 339.25 4.25 C340.8594751 4.57206421 340.8594751 4.57206421 342.50146484 4.90063477 C352.53880115 6.98100055 362.29229521 9.72373073 372 13 C372.66016113 13.2170459 373.32032227 13.4340918 374.00048828 13.65771484 C399.76865573 22.22953429 424.05513334 35.75975663 445 53 C445.54398438 53.4424707 446.08796875 53.88494141 446.6484375 54.34082031 C460.33134239 65.52517633 473.32039984 77.8841848 484 92 C484.42587402 92.55478027 484.85174805 93.10956055 485.29052734 93.68115234 C492.22501455 102.73949526 498.39084254 112.06993662 504 122 C504.36834961 122.64098633 504.73669922 123.28197266 505.11621094 123.94238281 C522.56561486 154.49775707 533.12394021 190.76716076 534 226 C534.02046387 226.77811035 534.04092773 227.5562207 534.06201172 228.35791016 C535.37730774 286.22006494 517.41605926 344.02372164 479 388 C478.35546875 388.75410156 477.7109375 389.50820313 477.046875 390.28515625 C465.55171141 403.42561997 453.16538032 415.76269348 439 426 C437.93394531 426.77601563 436.86789062 427.55203125 435.76953125 428.3515625 C410.38949951 446.3432537 382.85004919 458.49557482 353 467 C353 470.68890585 356.14401842 473.64612844 358.25 476.5625 C359.35949817 478.11579744 360.46886973 479.66918533 361.578125 481.22265625 C362.14853516 482.01816895 362.71894531 482.81368164 363.30664062 483.63330078 C365.88920639 487.24278643 368.44414246 490.87157998 371 494.5 C371.99984635 495.91677511 372.99984692 497.3334414 374 498.75 C380 507.25 380 507.25 381.50097656 509.37646484 C382.49761905 510.78832092 383.49436329 512.20010518 384.49121094 513.61181641 C387.04343446 517.22649269 389.59369476 520.84252918 392.140625 524.4609375 C392.91563354 525.56078979 392.91563354 525.56078979 393.70629883 526.68286133 C394.72323918 528.12697131 395.7387384 529.57209738 396.75268555 531.01831055 C398.97387132 534.17707482 401.21282692 537.30932526 403.56640625 540.37109375 C404.30761719 541.34175781 405.04882812 542.31242188 405.8125 543.3125 C406.45832031 544.13363281 407.10414063 544.95476563 407.76953125 545.80078125 C409 548 409 548 408.82421875 550.16796875 C408 552 408 552 406 554 C403.61523438 554.33129883 403.61523438 554.33129883 400.59375 554.45703125 C399.4704126 554.51463623 398.3470752 554.57224121 397.18969727 554.6315918 C395.97209717 554.6912915 394.75449707 554.75099121 393.5 554.8125 C353.03352252 557.29990567 318.51462279 570.46956576 285.9375 594.1875 C285.15181641 594.75750732 284.36613281 595.32751465 283.55664062 595.91479492 C279.21057604 599.13849857 275.28084792 602.51419872 271.53442383 606.42138672 C269.16466822 608.85938827 266.72248351 610.95813737 264 613 C263.01 613 262.02 613 261 613 C259.39367602 610.77967573 258.00533481 608.60722974 256.625 606.25 C255.73239667 604.7735723 254.83776858 603.29836732 253.94140625 601.82421875 C253.46590332 601.03837402 252.99040039 600.2525293 252.50048828 599.44287109 C249.93401013 595.26451438 247.24650121 591.16597077 244.5625 587.0625 C243.45171876 585.35944293 242.34104133 583.65631815 241.23046875 581.953125 C240.68825684 581.12232422 240.14604492 580.29152344 239.58740234 579.43554688 C237.1745422 575.73350246 234.77406846 572.02349148 232.375 568.3125 C231.93559082 567.6330835 231.49618164 566.95366699 231.04345703 566.25366211 C229.69544978 564.16922972 228.34770197 562.08462978 227 560 C224.97943976 556.87482331 222.95854795 553.74986131 220.9375 550.625 C220.23923096 549.54472534 220.23923096 549.54472534 219.52685547 548.44262695 C219.0938916 547.77320068 218.66092773 547.10377441 218.21484375 546.4140625 C217.83448975 545.8257666 217.45413574 545.2374707 217.06225586 544.63134766 C216.05237388 543.0804326 215.02659993 541.5398999 214 540 C213.81096756 537.40120283 213.73909493 534.91074449 213.75949097 532.31221008 C213.75778212 531.5215212 213.75607327 530.73083232 213.75431263 529.91618317 C213.75100998 527.25823984 213.76203413 524.60054716 213.77294922 521.94262695 C213.77351317 520.04073086 213.7731971 518.13883432 213.77206421 516.23693848 C213.77148905 511.06575551 213.78326975 505.89466482 213.79721212 500.72350335 C213.80969231 495.32228068 213.81088784 489.92105603 213.81326294 484.51982117 C213.8194857 474.28822766 213.83590727 464.05667676 213.85596192 453.82510203 C213.87829619 442.17834344 213.88930812 430.53158285 213.89935279 418.88480818 C213.92027281 394.92318181 213.95546422 370.96159329 214 347 C214.87631828 346.99120064 214.87631828 346.99120064 215.77033997 346.98222351 C221.95338495 346.91736522 228.1359528 346.8327334 234.31860352 346.73754883 C236.61378616 346.70467115 238.90904247 346.67652905 241.2043457 346.65356445 C276.10845991 346.29514335 307.17228605 339.74779513 334 316 C335.25876953 314.89205078 335.25876953 314.89205078 336.54296875 313.76171875 C353.70459401 297.60438826 365.44253706 272.62185654 366.3359375 249.08984375 C366.77189318 219.51156103 358.6058678 193.87246322 338.09765625 172.07177734 C319.55715244 153.04439056 295.8944813 143.69921161 270 140 C237.33 139.67 204.66 139.34 171 139 C171 306.64 171 474.28 171 647 C154.17 650.96 154.17 650.96 137 655 C124.69391536 659.05376906 113.35771577 663.85336631 102 670 C101.40380859 670.32081543 100.80761719 670.64163086 100.19335938 670.97216797 C76.32487415 683.92615017 54.7188138 700.87406964 33.54296875 717.75390625 C24.25054133 725.10852947 14.40243774 731.87404216 3.76098633 737.13916016 C2.69899773 737.66589828 2.69899773 737.66589828 1.61555481 738.20327759 C1.08242172 738.46619598 0.54928864 738.72911438 0 739 C-0.20891711 727.16046916 -0.36864007 715.32137971 -0.46630955 703.48037815 C-0.51319709 697.98145309 -0.57674822 692.48379285 -0.67895508 686.9855957 C-0.77704923 681.6751515 -0.83062105 676.36592037 -0.85389519 671.05463982 C-0.87047129 669.03276414 -0.90284283 667.0109518 -0.95157051 664.98959541 C-1.31831521 649.13957423 -1.31831521 649.13957423 1.957901 643.82240295 C4.18923324 641.58154592 6.41923263 639.81270033 9 638 C10.683774 636.23746994 10.683774 636.23746994 12.00390625 634.55078125 C12.64368408 633.75486572 12.64368408 633.75486572 13.29638672 632.94287109 C13.7142041 632.40484863 14.13202148 631.86682617 14.5625 631.3125 C15.25110107 630.42812256 15.25110107 630.42812256 15.95361328 629.52587891 C34.14750875 605.61589367 40.82216404 576.86333052 37.69970703 547.14160156 C34.59071097 525.52516782 26.14776386 504.65521982 10.87109375 488.84375 C10.2085412 488.15004421 10.2085412 488.15004421 9.53260374 487.44232416 C7.99724557 485.92139283 7.99724557 485.92139283 6.00344133 484.64408255 C1.9883075 481.56567753 0.22076613 479.16123754 -0.73613071 474.12792683 C-1.11952267 469.05248934 -1.02845336 463.97672594 -0.96203613 458.89123535 C-0.96552575 456.91266736 -0.97253227 454.93410298 -0.98274946 452.9555583 C-1.00063388 447.52320646 -0.9686458 442.09211694 -0.92852497 436.65992594 C-0.8939806 430.80043505 -0.905668 424.94101548 -0.91174316 419.08145142 C-0.91593822 408.93096548 -0.89083616 398.78089089 -0.84584045 388.63050842 C-0.79868638 377.98630313 -0.76770901 367.34230267 -0.75901794 356.69798279 C-0.75846803 356.03585894 -0.75791811 355.3737351 -0.75735153 354.6915469 C-0.75464482 351.32887725 -0.75223377 347.96620745 -0.74993652 344.6035375 C-0.7331386 320.79319723 -0.67925497 296.98307118 -0.60351562 273.17285156 C-0.53002646 250.04330585 -0.47336435 226.91381878 -0.43945312 203.78417969 C-0.43840092 203.07107317 -0.43734871 202.35796665 -0.43626461 201.62325085 C-0.42571634 194.46186308 -0.41550985 187.30047485 -0.40555374 180.13908623 C-0.38526469 165.55085091 -0.36269467 150.96261941 -0.33874512 136.37438965 C-0.33709764 135.36830157 -0.33709764 135.36830157 -0.33541688 134.34188848 C-0.26182655 89.56116923 -0.13490016 44.78057143 0 0 Z " fill="#8B8F91" transform="translate(275,0)"/>
<path d="M0 0 C47.004375 -0.04125 94.00875 -0.0825 142.4375 -0.125 C164.61859985 -0.15231201 164.61859985 -0.15231201 187.24780273 -0.18017578 C205.44348145 -0.18920898 205.44348145 -0.18920898 213.98841858 -0.19088745 C219.89781831 -0.19273469 225.8071792 -0.19999404 231.71656799 -0.21115112 C238.56369281 -0.22405912 245.41078105 -0.22963147 252.25791806 -0.2268899 C255.74591893 -0.22570658 259.23377444 -0.22850093 262.72177017 -0.23843026 C277.33418233 -0.27803494 291.87841495 0.02644158 306.46253967 0.90481567 C307.47563676 0.96475336 307.47563676 0.96475336 308.50920045 1.0259019 C369.70499983 4.72580148 432.12278451 21.96617969 475 68 C512.57374883 110.6858235 532.84425439 165.55972508 529.60888672 222.5480957 C525.78627123 278.01958279 499.90508441 326.09491559 461 365 C462.16849487 365.5873291 462.16849487 365.5873291 463.3605957 366.18652344 C490.66465026 379.96422296 517.40255837 394.83411521 539.41113281 416.44189453 C541.1120719 418.1099021 542.83316259 419.75560716 544.5546875 421.40234375 C577.60018895 453.33834005 594.29111867 496.63838253 598 542 C598.08459473 543.00474365 598.08459473 543.00474365 598.17089844 544.02978516 C602.6019046 599.1289535 590.57510542 652.73828783 558 698 C557.39720215 698.83821289 557.39720215 698.83821289 556.78222656 699.69335938 C550.46818287 708.37326151 543.44137478 716.27720119 536 724 C535.41557129 724.61166016 534.83114258 725.22332031 534.22900391 725.85351562 C525.71138936 734.73160414 516.87794035 742.66737673 507 750 C506.27167969 750.61359375 505.54335937 751.2271875 504.79296875 751.859375 C504.20128906 752.23578125 503.60960937 752.6121875 503 753 C500 752 500 752 499.12792969 750.30444336 C498.89493164 749.57362549 498.66193359 748.84280762 498.421875 748.08984375 C498.15221924 747.27322266 497.88256348 746.45660156 497.60473633 745.61523438 C497.32267334 744.73158203 497.04061035 743.84792969 496.75 742.9375 C489.06437313 720.12149102 477.70009978 700.56727484 463.53857422 681.11962891 C461.96159302 678.94708833 460.40293819 676.76233624 458.84765625 674.57421875 C451.69290209 664.53731053 444.25473929 654.75182663 436.62841797 645.06933594 C435.12347821 643.15691173 433.62481261 641.23980592 432.12890625 639.3203125 C428.28875768 634.40098301 424.42652542 629.5060011 420.46484375 624.68359375 C419.86808838 623.9560791 419.27133301 623.22856445 418.65649414 622.47900391 C417.49177343 621.06256817 416.32314385 619.64933529 415.15014648 618.23974609 C414.62364502 617.5998877 414.09714355 616.9600293 413.5546875 616.30078125 C413.08530762 615.73528564 412.61592773 615.16979004 412.13232422 614.5871582 C411 613 411 613 410 610 C410.98461681 607.37336362 412.03586272 604.86430073 413.1875 602.3125 C424.26805478 576.68216747 426.14402477 546.68887994 416.00878906 520.43212891 C411.89053684 510.48441314 406.96491032 501.26129873 400 493 C398.78570313 491.52660156 398.78570313 491.52660156 397.546875 490.0234375 C382.20947804 472.01084677 360.33801088 461.18411824 337 458 C333.9387087 457.88327119 330.88317216 457.91727493 327.8203125 457.95336914 C325.94523323 457.96613933 324.0701517 457.97858029 322.19506836 457.99073792 C320.71247025 458.00261233 320.71247025 458.00261233 319.19992065 458.01472664 C312.82444864 458.05708494 306.44878209 458.04499855 300.07319641 458.04483891 C294.48664408 458.04783153 288.90120994 458.06843456 283.31494141 458.12670898 C277.89338489 458.18219672 272.47369431 458.18822924 267.05194092 458.16201591 C264.99804088 458.16078951 262.94404586 458.17703682 260.89044189 458.21193123 C246.62297326 458.44148997 238.71332125 456.44784711 228 447 C226.9002182 446.49060379 225.8004364 445.98120758 224.66732788 445.45637512 C221.4844397 442.52521416 221.54445444 441.72945756 221.2784729 437.54571533 C221.26103725 435.20400573 221.27712507 432.86191062 221.31884766 430.52050781 C221.31753342 428.60305504 221.31753342 428.60305504 221.31619263 426.64686584 C221.31447123 423.14464165 221.34974146 419.64365071 221.39163637 416.14171314 C221.42914804 412.48091195 221.43266901 408.82008238 221.43978882 405.15911865 C221.45843662 398.2280744 221.50767195 391.29759806 221.56788576 384.36680388 C221.63495359 376.4757687 221.66794045 368.58470638 221.69805837 360.69345713 C221.76077173 344.4619723 221.86630453 328.23105863 222 312 C222.7684877 311.99413376 223.5369754 311.98826752 224.32875061 311.98222351 C231.63820894 311.92386436 238.94734302 311.85154903 246.25650883 311.76428509 C250.01253601 311.71991465 253.76846299 311.68058967 257.5246582 311.65356445 C261.1623832 311.6271931 264.79971531 311.58656501 268.43719292 311.53681374 C269.81191486 311.52036987 271.18670438 311.50871795 272.56151009 311.50238609 C297.95822882 311.37380533 320.8212687 303.07030945 339 285 C353.91576658 268.4779201 361.42652909 247.08209723 361.21484375 224.94921875 C360.0480069 203.50063598 351.94016167 184.32579759 338 168 C337.39027344 167.19175781 336.78054688 166.38351563 336.15234375 165.55078125 C323.69443029 150.78668418 306.16547926 144.54136982 288 140 C249.72 139.67 211.44 139.34 172 139 C172 231.4 172 323.8 172 419 C166.39 417.68 160.78 416.36 155 415 C111.94250829 405.88514394 66.11636578 413.50002085 29 437 C28.07445312 437.58362305 27.14890625 438.16724609 26.1953125 438.76855469 C20.55326084 442.33185831 14.92722761 445.91916723 9.31738281 449.53295898 C2.26110834 454 2.26110834 454 0 454 C0 304.18 0 154.36 0 0 Z " fill="#8B8F91" transform="translate(868,0)"/>
<path d="M0 0 C5.71295729 4.8740502 7.23402284 11.71442111 9.4375 18.6875 C11.92455849 26.50846693 14.59351482 33.62451147 18.80517578 40.69555664 C20 43 20 43 20.4375 46.75 C16.31574717 56.06874552 4.39205032 60.26202031 -4.42578125 64.0390625 C-9.6550832 65.91985345 -14.80090744 66.35154379 -20.3125 66.5 C-21.33585449 66.54616455 -21.33585449 66.54616455 -22.37988281 66.59326172 C-25.94468729 66.59413932 -27.80341621 66.14536327 -30.68359375 64.015625 C-33.54614726 60.28899547 -35.64752516 56.44056076 -37.75 52.25 C-38.18119141 51.41742676 -38.61238281 50.58485352 -39.05664062 49.72705078 C-41.18881457 45.6055242 -43.26767325 41.46216 -45.296875 37.2890625 C-49.26326311 29.26890165 -52.79581577 23.27151876 -59.93359375 17.6640625 C-62 16 -62 16 -64 13 C-64.375 9.5 -64.375 9.5 -64 6 C-61.23861333 3.03075309 -58.63814125 2.61256192 -54.67044067 2.40628052 C-53.98255463 2.38435638 -53.29466858 2.36243225 -52.5859375 2.33984375 C-51.8626828 2.30502899 -51.1394281 2.27021423 -50.39425659 2.23434448 C-48.0548798 2.12340484 -45.7151467 2.03062902 -43.375 1.9375 C-40.18971731 1.7914883 -37.00499257 1.63512683 -33.8203125 1.4765625 C-32.65755798 1.42013329 -32.65755798 1.42013329 -31.47131348 1.36256409 C-24.39321601 1.00385366 -17.40782049 0.25676827 -10.390625 -0.73046875 C-6.58638473 -1.03287955 -3.69225333 -1.01751632 0 0 Z " fill="#8B8F91" transform="translate(864,1055)"/>
<path d="M0 0 C7.84026808 4.29797829 18.11515504 13.31393675 21 22 C20.50497542 26.83856117 19.43619043 31.2489777 17.9609375 35.875 C17.75925964 36.51365997 17.55758179 37.15231995 17.34979248 37.81033325 C16.69668071 39.87523175 16.03608502 41.93764177 15.375 44 C14.46140192 46.87171842 13.55088842 49.7444106 12.640625 52.6171875 C12.41412262 53.33019012 12.18762024 54.04319275 11.95425415 54.77780151 C10.56197667 59.17433141 9.22008156 63.58234203 7.921875 68.0078125 C7.61459473 69.05066406 7.30731445 70.09351563 6.99072266 71.16796875 C6.43026911 73.08229852 5.87735577 74.99885872 5.33349609 76.91796875 C3.85184489 81.94591372 2.17182325 85.81209485 -1 90 C-9.09012336 88.76215595 -16.68407456 86.72396753 -24.4375 84.125 C-26.02981445 83.61646484 -26.02981445 83.61646484 -27.65429688 83.09765625 C-29.18473633 82.58912109 -29.18473633 82.58912109 -30.74609375 82.0703125 C-31.66060303 81.76883301 -32.5751123 81.46735352 -33.51733398 81.15673828 C-36.3411182 79.84106421 -37.99076381 78.36491202 -40 76 C-40.65067006 72.81962204 -40.02913469 70.05293545 -39 67 C-37.41098489 64.687235 -35.72048336 62.66306227 -33.7890625 60.62890625 C-27.85503131 51.90924907 -28.11462363 40.50061323 -27.44726562 30.34375 C-26.56144326 20.09272389 -23.56925871 13.05559002 -15.9375 6.0625 C-14.64102449 5.02139088 -13.33020466 3.9976535 -12 3 C-11.154375 2.360625 -10.30875 1.72125 -9.4375 1.0625 C-5.93230574 -0.46540519 -3.80018331 -0.57968898 0 0 Z " fill="#8B8F91" transform="translate(40,1134)"/>
<path d="M0 0 C3.90484508 3.36515104 7.4444306 6.48943577 9.58984375 11.2578125 C8.98708566 25.53564471 -6.65407996 41.76408448 -16.41015625 51.2578125 C-22.73446196 56.49406562 -28.88481873 60.75343094 -37.41015625 60.1328125 C-45.73762377 58.66513623 -50.98413312 53.46417452 -56.4140625 47.265625 C-59.06551154 43.27029084 -59.50103615 40.52430237 -58.98046875 35.8125 C-55.19198233 18.84215671 -34.15804816 9.53799245 -20.76342773 0.79492188 C-18.97280407 -0.37467731 -17.18971234 -1.55581677 -15.41015625 -2.7421875 C-9.7725511 -4.67508069 -4.69459044 -3.39349649 0 0 Z " fill="#8B8F91" transform="translate(116.41015625,1078.7421875)"/>
</svg>
