<?xml version="1.0" encoding="UTF-8"?>
<svg version="1.1" xmlns="http://www.w3.org/2000/svg" width="600" height="579">
<path d="M0 0 C7.89519044 1.12788435 7.89519044 1.12788435 10.8125 2.390625 C11.8192981 2.82640869 11.8192981 2.82640869 12.84643555 3.27099609 C13.55711182 3.59406738 14.26778809 3.91713867 15 4.25 C15.76546143 4.59498535 16.53092285 4.9399707 17.31958008 5.29541016 C60.11923883 25.11077783 101.10619667 56.83449207 129 95 C129.87035397 96.12081081 130.74545726 97.2379479 131.625 98.3515625 C136.85575914 104.98086348 141.64376817 111.75811142 146 119 C146.37624512 119.61858887 146.75249023 120.23717773 147.14013672 120.87451172 C153.28864013 131.00332356 158.98680549 141.26171894 164 152 C164.391875 152.83740723 164.78375 153.67481445 165.1875 154.53759766 C180.92572158 188.54076312 191.13264795 225.6541176 191.16796875 263.28515625 C191.17129715 264.54025497 191.17462555 265.7953537 191.17805481 267.08848572 C191.18309632 269.73505217 191.1858993 272.38151579 191.18530273 275.02807617 C191.18518181 279.02595582 191.20564128 283.02364989 191.22460938 287.02148438 C191.31971673 330.02829287 181.08731765 370.0260481 163 409 C162.65469238 409.74717285 162.30938477 410.4943457 161.95361328 411.26416016 C144.85524027 447.85246558 117.9341799 482.0821736 87 508 C86.46552246 508.45358887 85.93104492 508.90717773 85.38037109 509.37451172 C77.5853964 515.96831432 69.61788497 522.13776304 61.125 527.8125 C60.34592285 528.33416748 59.5668457 528.85583496 58.76416016 529.39331055 C53.26446366 533 53.26446366 533 51 533 C50.89977539 531.97342285 50.79955078 530.9468457 50.69628906 529.88916016 C50.3121506 525.98517305 49.91337741 522.0827831 49.51074219 518.18066406 C49.34024144 516.50950131 49.17342124 514.8379579 49.01074219 513.16601562 C47.38143243 496.47061936 44.2459062 480.54745862 38.875 464.625 C38.29685547 462.9066394 38.29685547 462.9066394 37.70703125 461.15356445 C28.57541582 434.83594047 12.762985 409.19576363 -7.32421875 389.75 C-9 388 -9 388 -9 386 C-9.66 386 -10.32 386 -11 386 C-12.3046875 384.671875 -12.3046875 384.671875 -13.875 382.75 C-38.27815215 354.21242951 -72.76703216 336.22488174 -105 318 C-106.48910889 317.15743652 -106.48910889 317.15743652 -108.00830078 316.29785156 C-117.72612725 310.82656646 -127.4503125 305.62102402 -137.69482422 301.20605469 C-181.16270878 282.41579357 -225.66625693 259.12218097 -260.34375 226.4453125 C-262.92443579 224.00190237 -262.92443579 224.00190237 -265.5703125 222 C-289.16539352 202.57768251 -304.13694585 164.77024883 -307.203125 135.02978516 C-309.92125941 106.45670397 -302.95203615 79.26821236 -286 56 C-285.49082031 55.24589844 -284.98164063 54.49179687 -284.45703125 53.71484375 C-283.36347641 52.10177019 -282.19159628 50.54206577 -281 49 C-280.34 49 -279.68 49 -279 49 C-278.74863281 48.42507812 -278.49726563 47.85015625 -278.23828125 47.2578125 C-267.76354953 28.15877486 -239.95877138 16.32275011 -220.22265625 10.40625 C-191.14965891 2.30033594 -157.29075073 3.24073459 -129 14 C-128.34725098 14.24733887 -127.69450195 14.49467773 -127.02197266 14.74951172 C-109.73549652 21.46430238 -95.54062024 31.44516081 -82 44 C-81.22011719 44.70898438 -80.44023437 45.41796875 -79.63671875 46.1484375 C-69.06608487 56.1894805 -61.89465526 67.79361042 -56 81 C-55.47792969 82.15757813 -54.95585937 83.31515625 -54.41796875 84.5078125 C-42.50075172 112.61860941 -34 148.30394224 -34 179 C-22.78 179 -11.56 179 0 179 C0 119.93 0 60.86 0 0 Z " fill="#D8181A" transform="translate(409,0)"/>
<path d="M0 0 C0.99 0 1.98 0 3 0 C2.97679688 1.20914063 2.95359375 2.41828125 2.9296875 3.6640625 C2.79463431 13.63548986 3.09383112 23.17337079 5 33 C5.11827148 33.6408252 5.23654297 34.28165039 5.35839844 34.94189453 C9.66400652 57.72436782 20.2640192 81.84611281 36 99 C36.72960938 99.84691406 37.45921875 100.69382812 38.2109375 101.56640625 C52.54703995 118.04034853 70.65522104 130.24650829 88.64453125 142.3671875 C93.38253968 145.56401749 98.04235059 148.85791757 102.6875 152.1875 C110.74554948 157.93070898 119.07488161 163.18974782 127.47265625 168.41845703 C131.89649272 171.18677355 136.28948016 174.003427 140.6875 176.8125 C152.41063722 184.28487742 164.20220851 191.64627063 176 199 C210.07540308 220.23967803 244.04075479 241.6888776 277.01123047 264.62158203 C279.1278182 266.08859091 281.25332975 267.54214525 283.37890625 268.99609375 C291.85722955 274.83692328 299.52271377 280.90550999 307 288 C308.24231905 289.05081532 309.49140814 290.0937309 310.75 291.125 C314.59327418 294.40495739 317.80587831 298.09393552 321 302 C321.78632813 302.96035156 322.57265625 303.92070312 323.3828125 304.91015625 C336.21421484 320.90607658 345.10140135 339.08398022 350 359 C350.21398437 359.80050781 350.42796875 360.60101562 350.6484375 361.42578125 C352.71177003 370.08280686 352.65450026 379.14429618 353 388 C346.39217251 390.05221074 339.75332994 391.48902834 332.9375 392.625 C332.2067627 392.74786377 331.47602539 392.87072754 330.72314453 392.99731445 C320.76914501 394.60319096 310.9706402 395.16650826 300.890625 395.203125 C299.02576447 395.21167511 299.02576447 395.21167511 297.12322998 395.22039795 C294.49768919 395.22980613 291.87213682 395.2363652 289.24658203 395.24023438 C285.30349049 395.2498693 281.36093676 395.28090491 277.41796875 395.3125 C262.35508107 395.37591906 247.8373078 394.65088897 233 392 C231.8346875 391.79584473 230.669375 391.59168945 229.46875 391.38134766 C226.75577746 390.86816767 224.06676389 390.30138829 221.375 389.6875 C220.42737793 389.47440186 219.47975586 389.26130371 218.50341797 389.04174805 C168.54495218 377.52153097 116.36970246 352.20995665 80.66015625 314.6953125 C78.98077395 312.98036681 77.22048458 311.4709089 75.375 309.9375 C58.06839068 294.97237312 44.49755753 275.98505368 32 257 C31.53287598 256.29166016 31.06575195 255.58332031 30.58447266 254.85351562 C24.29278555 245.24140606 18.85591855 235.40676536 14 225 C13.58105469 224.11763672 13.16210938 223.23527344 12.73046875 222.32617188 C-3.42345773 188.08636518 -14.07029696 150.44880729 -14.203125 112.41796875 C-14.20882507 111.12796463 -14.21452515 109.83796051 -14.22039795 108.50886536 C-14.23083822 105.78495906 -14.23672444 103.06108162 -14.24023438 100.3371582 C-14.24459322 97.59027638 -14.25839708 94.84371321 -14.28125 92.09692383 C-14.41396356 75.81516341 -14.00653614 60.03460929 -11 44 C-10.84072021 43.12708817 -10.68144043 42.25417633 -10.51733398 41.35481262 C-5.09921977 11.76563093 -5.09921977 11.76563093 0 0 Z " fill="#D8181A" transform="translate(14,184)"/>
</svg>
